<svg width="57" height="57" viewBox="0 0 57 57" fill="none" xmlns="http://www.w3.org/2000/svg">
<path fill-rule="evenodd" clip-rule="evenodd" d="M27.9796 0.0766198C28.3199 -0.0203316 28.6805 -0.0203316 29.0208 0.0766198L55.6208 7.67662C56.0521 7.79955 56.4259 8.07106 56.6763 8.44312C56.9267 8.81518 57.0374 9.26381 56.9888 9.70962L53.1888 43.9096C53.1539 44.2248 53.0407 44.5261 52.8595 44.7863C52.6783 45.0465 52.4349 45.2572 52.1514 45.3992L29.3514 56.7992C29.0872 56.9316 28.7957 57.0006 28.5002 57.0006C28.2047 57.0006 27.9132 56.9316 27.649 56.7992L4.84898 45.3992C4.56551 45.2572 4.32208 45.0465 4.14089 44.7863C3.95969 44.5261 3.84648 44.2248 3.81158 43.9096L0.0115848 9.70962C-0.0379321 9.2632 0.0723069 8.81367 0.322739 8.4408C0.573171 8.06794 0.947602 7.79585 1.37958 7.67282L27.9796 0.0728198V0.0766198ZM28.5002 6.65822L43.5406 41.0368L40.0598 42.5568L36.4004 34.2006H20.6L16.9406 42.5606L13.4598 41.0406L28.5002 6.66202V6.65822Z" fill="black"/>
</svg>
