<svg width="102" height="102" viewBox="0 0 102 102" fill="none" xmlns="http://www.w3.org/2000/svg">
<path d="M56.3555 44.625H64.8555V48.875H56.3555V44.625Z" fill="black"/>
<path d="M85 17H17C14.7457 17 12.5837 17.8955 10.9896 19.4896C9.39553 21.0837 8.5 23.2457 8.5 25.5V76.5C8.5 78.7543 9.39553 80.9163 10.9896 82.5104C12.5837 84.1045 14.7457 85 17 85H85C87.2543 85 89.4163 84.1045 91.0104 82.5104C92.6045 80.9163 93.5 78.7543 93.5 76.5V25.5C93.5 23.2457 92.6045 21.0837 91.0104 19.4896C89.4163 17.8955 87.2543 17 85 17ZM35.7 63.75L34 58.5225H25.755L23.885 63.75H17L26.35 38.25H33.235L42.5 63.75H35.7ZM71.23 48.875C71.2474 49.7169 71.0943 50.5537 70.7801 51.335C70.4659 52.1163 69.9969 52.826 69.4015 53.4215C68.806 54.0169 68.0963 54.4859 67.315 54.8001C66.5337 55.1143 65.6969 55.2674 64.855 55.25H56.355V63.75H49.98V38.25H64.855C65.6969 38.2326 66.5337 38.3857 67.315 38.6999C68.0963 39.0141 68.806 39.4831 69.4015 40.0785C69.9969 40.674 70.4659 41.3837 70.7801 42.165C71.0943 42.9463 71.2474 43.7831 71.23 44.625V48.875ZM85 63.75H78.625V38.25H85V63.75Z" fill="black"/>
<path d="M27.3271 54.2731H32.2571L29.7922 47.5156L27.3271 54.2731Z" fill="black"/>
</svg>
