<svg width="1440" height="793" viewBox="0 0 1440 793" fill="none" xmlns="http://www.w3.org/2000/svg">
<g clip-path="url(#clip0_315_3458)">
<rect width="1440" height="793" fill="white"/>
<rect y="757" width="32.7727" height="36" transform="rotate(-90 0 757)" fill="#5A9E24"/>
<rect y="724.229" width="32.7727" height="36" transform="rotate(-90 0 724.229)" fill="black"/>
<rect y="691.453" width="32.7727" height="36" transform="rotate(-90 0 691.453)" fill="#5A9E24"/>
<rect y="658.682" width="32.7727" height="36" transform="rotate(-90 0 658.682)" fill="black"/>
<rect y="494.818" width="32.7727" height="36" transform="rotate(-90 0 494.818)" fill="#5A9E24"/>
<rect y="462.047" width="32.7727" height="36" transform="rotate(-90 0 462.047)" fill="black"/>
<rect y="429.271" width="32.7727" height="36" transform="rotate(-90 0 429.271)" fill="#5A9E24"/>
<rect y="396.5" width="32.7727" height="36" transform="rotate(-90 0 396.5)" fill="black"/>
<rect y="363.729" width="32.7727" height="36" transform="rotate(-90 0 363.729)" fill="#5A9E24"/>
<rect y="330.953" width="32.7727" height="36" transform="rotate(-90 0 330.953)" fill="black"/>
<rect y="298.182" width="32.7727" height="36" transform="rotate(-90 0 298.182)" fill="#5A9E24"/>
<rect y="265.41" width="32.7727" height="36" transform="rotate(-90 0 265.41)" fill="black"/>
<rect y="232.639" width="32.7727" height="36" transform="rotate(-90 0 232.639)" fill="#5A9E24"/>
<rect y="199.861" width="32.7727" height="36" transform="rotate(-90 0 199.861)" fill="black"/>
<rect y="167.09" width="32.7727" height="36" transform="rotate(-90 0 167.09)" fill="#5A9E24"/>
<rect y="134.318" width="32.7727" height="36" transform="rotate(-90 0 134.318)" fill="black"/>
<rect y="101.547" width="32.7727" height="36" transform="rotate(-90 0 101.547)" fill="#5A9E24"/>
<rect y="68.7715" width="32.7727" height="36" transform="rotate(-90 0 68.7715)" fill="black"/>
<rect y="625.91" width="32.7727" height="36" transform="rotate(-90 0 625.91)" fill="#5A9E24"/>
<rect y="593.139" width="32.7727" height="36" transform="rotate(-90 0 593.139)" fill="black"/>
<rect y="560.361" width="32.7727" height="36" transform="rotate(-90 0 560.361)" fill="#5A9E24"/>
<rect y="527.59" width="32.7727" height="36" transform="rotate(-90 0 527.59)" fill="black"/>
<rect x="1440" y="793" width="65.4545" height="36" transform="rotate(-180 1440 793)" fill="#0A66C2"/>
<rect x="1374.54" y="793" width="65.4545" height="36" transform="rotate(-180 1374.54 793)" fill="#EDEF7C"/>
<rect x="1309.09" y="793" width="65.4545" height="36" transform="rotate(-180 1309.09 793)" fill="#0A66C2"/>
<rect x="1243.64" y="793" width="65.4545" height="36" transform="rotate(-180 1243.64 793)" fill="#EDEF7C"/>
<rect x="916.361" y="793" width="65.4545" height="36" transform="rotate(-180 916.361 793)" fill="#0A66C2"/>
<rect x="850.91" y="793" width="65.4545" height="36" transform="rotate(-180 850.91 793)" fill="#EDEF7C"/>
<rect x="785.455" y="793" width="65.4545" height="36" transform="rotate(-180 785.455 793)" fill="#0A66C2"/>
<rect x="720" y="793" width="65.4545" height="36" transform="rotate(-180 720 793)" fill="#EDEF7C"/>
<rect x="654.545" y="793" width="65.4545" height="36" transform="rotate(-180 654.545 793)" fill="#0A66C2"/>
<rect x="589.09" y="793" width="65.4545" height="36" transform="rotate(-180 589.09 793)" fill="#EDEF7C"/>
<rect x="523.639" y="793" width="65.4545" height="36" transform="rotate(-180 523.639 793)" fill="#0A66C2"/>
<rect x="458.184" y="793" width="65.4545" height="36" transform="rotate(-180 458.184 793)" fill="#EDEF7C"/>
<rect x="392.729" y="793" width="65.4545" height="36" transform="rotate(-180 392.729 793)" fill="#0A66C2"/>
<rect x="327.271" y="793" width="65.4545" height="36" transform="rotate(-180 327.271 793)" fill="#EDEF7C"/>
<rect x="261.816" y="793" width="65.4545" height="36" transform="rotate(-180 261.816 793)" fill="#0A66C2"/>
<rect x="196.361" y="793" width="65.4545" height="36" transform="rotate(-180 196.361 793)" fill="#EDEF7C"/>
<rect x="130.91" y="793" width="65.4545" height="36" transform="rotate(-180 130.91 793)" fill="#0A66C2"/>
<rect x="65.4551" y="793" width="65.4545" height="36" transform="rotate(-180 65.4551 793)" fill="#EDEF7C"/>
<rect x="1178.18" y="793" width="65.4545" height="36" transform="rotate(-180 1178.18 793)" fill="#0A66C2"/>
<rect x="1112.73" y="793" width="65.4545" height="36" transform="rotate(-180 1112.73 793)" fill="#EDEF7C"/>
<rect x="1047.27" y="793" width="65.4545" height="36" transform="rotate(-180 1047.27 793)" fill="#0A66C2"/>
<rect x="981.816" y="793" width="65.4545" height="36" transform="rotate(-180 981.816 793)" fill="#EDEF7C"/>
<rect x="1440" y="36" width="65.4545" height="36" transform="rotate(-180 1440 36)" fill="#EDEF7C"/>
<rect x="1374.54" y="36" width="65.4545" height="36" transform="rotate(-180 1374.54 36)" fill="#FF543E"/>
<rect x="1309.09" y="36" width="65.4545" height="36" transform="rotate(-180 1309.09 36)" fill="#EDEF7C"/>
<rect x="1243.64" y="36" width="65.4545" height="36" transform="rotate(-180 1243.64 36)" fill="#FF543E"/>
<rect x="916.363" y="36" width="65.4545" height="36" transform="rotate(-180 916.363 36)" fill="#EDEF7C"/>
<rect x="850.91" y="36" width="65.4545" height="36" transform="rotate(-180 850.91 36)" fill="#FF543E"/>
<rect x="785.455" y="36" width="65.4545" height="36" transform="rotate(-180 785.455 36)" fill="#EDEF7C"/>
<rect x="720" y="36" width="65.4545" height="36" transform="rotate(-180 720 36)" fill="#FF543E"/>
<rect x="654.545" y="36" width="65.4545" height="36" transform="rotate(-180 654.545 36)" fill="#EDEF7C"/>
<rect x="589.09" y="36" width="65.4545" height="36" transform="rotate(-180 589.09 36)" fill="#FF543E"/>
<rect x="523.637" y="36" width="65.4545" height="36" transform="rotate(-180 523.637 36)" fill="#EDEF7C"/>
<rect x="458.182" y="36" width="65.4545" height="36" transform="rotate(-180 458.182 36)" fill="#FF543E"/>
<rect x="392.727" y="36" width="65.4545" height="36" transform="rotate(-180 392.727 36)" fill="#EDEF7C"/>
<rect x="327.273" y="36" width="65.4545" height="36" transform="rotate(-180 327.273 36)" fill="#FF543E"/>
<rect x="261.818" y="36" width="65.4545" height="36" transform="rotate(-180 261.818 36)" fill="#EDEF7C"/>
<rect x="196.363" y="36" width="65.4545" height="36" transform="rotate(-180 196.363 36)" fill="#FF543E"/>
<rect x="130.91" y="36" width="65.4545" height="36" transform="rotate(-180 130.91 36)" fill="#EDEF7C"/>
<rect x="65.4551" y="36" width="65.4545" height="36" transform="rotate(-180 65.4551 36)" fill="#FF543E"/>
<rect x="1178.18" y="36" width="65.4545" height="36" transform="rotate(-180 1178.18 36)" fill="#EDEF7C"/>
<rect x="1112.73" y="36" width="65.4545" height="36" transform="rotate(-180 1112.73 36)" fill="#FF543E"/>
<rect x="1047.27" y="36" width="65.4545" height="36" transform="rotate(-180 1047.27 36)" fill="#EDEF7C"/>
<rect x="981.818" y="36" width="65.4545" height="36" transform="rotate(-180 981.818 36)" fill="#FF543E"/>
<rect x="1404" y="757" width="32.7727" height="36" transform="rotate(-90 1404 757)" fill="#5A9E24"/>
<rect x="1404" y="724.227" width="32.7727" height="36" transform="rotate(-90 1404 724.227)" fill="black"/>
<rect x="1404" y="691.455" width="32.7727" height="36" transform="rotate(-90 1404 691.455)" fill="#5A9E24"/>
<rect x="1404" y="658.682" width="32.7727" height="36" transform="rotate(-90 1404 658.682)" fill="black"/>
<rect x="1404" y="494.818" width="32.7727" height="36" transform="rotate(-90 1404 494.818)" fill="#5A9E24"/>
<rect x="1404" y="462.045" width="32.7727" height="36" transform="rotate(-90 1404 462.045)" fill="black"/>
<rect x="1404" y="429.273" width="32.7727" height="36" transform="rotate(-90 1404 429.273)" fill="#5A9E24"/>
<rect x="1404" y="396.5" width="32.7727" height="36" transform="rotate(-90 1404 396.5)" fill="black"/>
<rect x="1404" y="363.727" width="32.7727" height="36" transform="rotate(-90 1404 363.727)" fill="#5A9E24"/>
<rect x="1404" y="330.955" width="32.7727" height="36" transform="rotate(-90 1404 330.955)" fill="black"/>
<rect x="1404" y="298.182" width="32.7727" height="36" transform="rotate(-90 1404 298.182)" fill="#5A9E24"/>
<rect x="1404" y="265.408" width="32.7727" height="36" transform="rotate(-90 1404 265.408)" fill="black"/>
<rect x="1404" y="232.637" width="32.7727" height="36" transform="rotate(-90 1404 232.637)" fill="#5A9E24"/>
<rect x="1404" y="199.863" width="32.7727" height="36" transform="rotate(-90 1404 199.863)" fill="black"/>
<rect x="1404" y="167.092" width="32.7727" height="36" transform="rotate(-90 1404 167.092)" fill="#5A9E24"/>
<rect x="1404" y="134.318" width="32.7727" height="36" transform="rotate(-90 1404 134.318)" fill="black"/>
<rect x="1404" y="101.545" width="32.7727" height="36" transform="rotate(-90 1404 101.545)" fill="#5A9E24"/>
<rect x="1404" y="68.7734" width="32.7727" height="36" transform="rotate(-90 1404 68.7734)" fill="black"/>
<rect x="1404" y="625.908" width="32.7727" height="36" transform="rotate(-90 1404 625.908)" fill="#5A9E24"/>
<rect x="1404" y="593.137" width="32.7727" height="36" transform="rotate(-90 1404 593.137)" fill="black"/>
<rect x="1404" y="560.363" width="32.7727" height="36" transform="rotate(-90 1404 560.363)" fill="#5A9E24"/>
<rect x="1404" y="527.592" width="32.7727" height="36" transform="rotate(-90 1404 527.592)" fill="black"/>
<rect x="1064" y="757" width="32.7728" height="340" transform="rotate(-90 1064 757)" fill="#5A9E24"/>
<rect x="1064" y="724.227" width="32.7728" height="340" transform="rotate(-90 1064 724.227)" fill="black"/>
<rect x="1064" y="691.455" width="32.7728" height="340" transform="rotate(-90 1064 691.455)" fill="#5A9E24"/>
<rect x="1064" y="658.682" width="32.7728" height="340" transform="rotate(-90 1064 658.682)" fill="black"/>
<rect x="1064" y="494.816" width="32.7728" height="340" transform="rotate(-90 1064 494.816)" fill="#5A9E24"/>
<rect x="1064" y="462.045" width="32.7728" height="340" transform="rotate(-90 1064 462.045)" fill="black"/>
<rect x="1064" y="429.273" width="32.7728" height="340" transform="rotate(-90 1064 429.273)" fill="#5A9E24"/>
<rect x="1064" y="396.5" width="32.7728" height="340" transform="rotate(-90 1064 396.5)" fill="black"/>
<rect x="1064" y="363.727" width="32.7728" height="340" transform="rotate(-90 1064 363.727)" fill="#5A9E24"/>
<rect x="1064" y="330.953" width="32.7728" height="340" transform="rotate(-90 1064 330.953)" fill="black"/>
<rect x="1064" y="298.182" width="32.7728" height="340" transform="rotate(-90 1064 298.182)" fill="#5A9E24"/>
<rect x="1064" y="265.408" width="32.7728" height="340" transform="rotate(-90 1064 265.408)" fill="black"/>
<rect x="1064" y="232.637" width="32.7728" height="340" transform="rotate(-90 1064 232.637)" fill="#5A9E24"/>
<rect x="1064" y="199.863" width="32.7728" height="340" transform="rotate(-90 1064 199.863)" fill="black"/>
<rect x="1064" y="167.09" width="32.7728" height="340" transform="rotate(-90 1064 167.09)" fill="#5A9E24"/>
<rect x="1064" y="134.316" width="32.7728" height="340" transform="rotate(-90 1064 134.316)" fill="black"/>
<rect x="1064" y="101.545" width="32.7728" height="340" transform="rotate(-90 1064 101.545)" fill="#5A9E24"/>
<rect x="1064" y="68.7734" width="32.7728" height="340" transform="rotate(-90 1064 68.7734)" fill="black"/>
<rect x="1064" y="625.908" width="32.7728" height="340" transform="rotate(-90 1064 625.908)" fill="#5A9E24"/>
<rect x="1064" y="593.137" width="32.7728" height="340" transform="rotate(-90 1064 593.137)" fill="black"/>
<rect x="1064" y="560.363" width="32.7728" height="340" transform="rotate(-90 1064 560.363)" fill="#5A9E24"/>
<rect x="1064" y="527.592" width="32.7728" height="340" transform="rotate(-90 1064 527.592)" fill="black"/>
<rect x="36" y="757" width="32.7728" height="1028" transform="rotate(-90 36 757)" fill="#5A9E24"/>
<rect x="36" y="724.227" width="32.7728" height="1028" transform="rotate(-90 36 724.227)" fill="black"/>
<rect x="36" y="691.455" width="32.7728" height="1028" transform="rotate(-90 36 691.455)" fill="#5A9E24"/>
<rect x="36" y="658.682" width="32.7728" height="1028" transform="rotate(-90 36 658.682)" fill="black"/>
<rect x="36" y="494.818" width="32.7728" height="1028" transform="rotate(-90 36 494.818)" fill="#5A9E24"/>
<rect x="36" y="462.045" width="32.7728" height="1028" transform="rotate(-90 36 462.045)" fill="black"/>
<rect x="36" y="429.273" width="32.7728" height="1028" transform="rotate(-90 36 429.273)" fill="#5A9E24"/>
<rect x="36" y="396.5" width="32.7728" height="1028" transform="rotate(-90 36 396.5)" fill="black"/>
<rect x="36" y="363.727" width="32.7728" height="1028" transform="rotate(-90 36 363.727)" fill="#5A9E24"/>
<rect x="36" y="330.955" width="32.7728" height="1028" transform="rotate(-90 36 330.955)" fill="black"/>
<rect x="36" y="298.182" width="32.7728" height="1028" transform="rotate(-90 36 298.182)" fill="#5A9E24"/>
<rect x="36" y="265.408" width="32.7728" height="1028" transform="rotate(-90 36 265.408)" fill="black"/>
<rect x="36" y="232.637" width="32.7728" height="1028" transform="rotate(-90 36 232.637)" fill="#5A9E24"/>
<rect x="36" y="199.863" width="32.7728" height="1028" transform="rotate(-90 36 199.863)" fill="black"/>
<rect x="36" y="167.092" width="32.7728" height="1028" transform="rotate(-90 36 167.092)" fill="#5A9E24"/>
<rect x="36" y="134.318" width="32.7728" height="1028" transform="rotate(-90 36 134.318)" fill="black"/>
<rect x="36" y="101.545" width="32.7728" height="1028" transform="rotate(-90 36 101.545)" fill="#5A9E24"/>
<rect x="36" y="68.7734" width="32.7728" height="1028" transform="rotate(-90 36 68.7734)" fill="black"/>
<rect x="36" y="625.908" width="32.7728" height="1028" transform="rotate(-90 36 625.908)" fill="#5A9E24"/>
<rect x="36" y="593.137" width="32.7728" height="1028" transform="rotate(-90 36 593.137)" fill="black"/>
<rect x="36" y="560.363" width="32.7728" height="1028" transform="rotate(-90 36 560.363)" fill="#5A9E24"/>
<rect x="36" y="527.592" width="32.7728" height="1028" transform="rotate(-90 36 527.592)" fill="black"/>
</g>
<defs>
<clipPath id="clip0_315_3458">
<rect width="1440" height="793" fill="white"/>
</clipPath>
</defs>
</svg>
