<svg width="1440" height="784" viewBox="0 0 1440 784" fill="none" xmlns="http://www.w3.org/2000/svg">
<g clip-path="url(#clip0_207_8347)">
<rect width="1440" height="784" fill="#3D1A14"/>
<rect x="15" y="593" width="67" height="36" transform="rotate(-90 15 593)" fill="#5A9E24"/>
<rect x="15" y="526" width="67" height="36" transform="rotate(-90 15 526)" fill="black"/>
<rect x="15" y="459" width="67" height="36" transform="rotate(-90 15 459)" fill="#5A9E24"/>
<rect x="15" y="392" width="67" height="36" transform="rotate(-90 15 392)" fill="black"/>
<rect x="15" y="325" width="67" height="36" transform="rotate(-90 15 325)" fill="#5A9E24"/>
<rect x="15" y="258" width="67" height="36" transform="rotate(-90 15 258)" fill="black"/>
<rect x="15" y="191" width="67" height="36" transform="rotate(-90 15 191)" fill="#5A9E24"/>
<rect x="15" y="124" width="67" height="36" transform="rotate(-90 15 124)" fill="black"/>
<rect x="15" y="57" width="67" height="36" transform="rotate(-90 15 57)" fill="#5A9E24"/>
<rect x="15" y="794" width="67" height="36" transform="rotate(-90 15 794)" fill="black"/>
<rect x="15" y="727" width="67" height="36" transform="rotate(-90 15 727)" fill="#5A9E24"/>
<rect x="15" y="660" width="67" height="36" transform="rotate(-90 15 660)" fill="black"/>
<rect x="387" y="669" width="67" height="36" transform="rotate(-90 387 669)" fill="#5A9E24"/>
<rect x="387" y="602" width="67" height="36" transform="rotate(-90 387 602)" fill="black"/>
<rect x="387" y="535" width="67" height="36" transform="rotate(-90 387 535)" fill="#5A9E24"/>
<rect x="387" y="468" width="67" height="36" transform="rotate(-90 387 468)" fill="black"/>
<rect x="387" y="401" width="67" height="36" transform="rotate(-90 387 401)" fill="#5A9E24"/>
<rect x="387" y="334" width="67" height="36" transform="rotate(-90 387 334)" fill="black"/>
<rect x="387" y="267" width="67" height="36" transform="rotate(-90 387 267)" fill="#5A9E24"/>
<rect x="387" y="200" width="67" height="36" transform="rotate(-90 387 200)" fill="black"/>
<rect x="387" y="133" width="67" height="36" transform="rotate(-90 387 133)" fill="#5A9E24"/>
<rect x="387" y="66" width="67" height="36" transform="rotate(-90 387 66)" fill="black"/>
<rect x="387" y="803" width="67" height="36" transform="rotate(-90 387 803)" fill="#5A9E24"/>
<rect x="387" y="736" width="67" height="36" transform="rotate(-90 387 736)" fill="black"/>
<rect x="309" y="602" width="67" height="36" transform="rotate(-90 309 602)" fill="#5A9E24"/>
<rect x="309" y="535" width="67" height="36" transform="rotate(-90 309 535)" fill="black"/>
<rect x="309" y="468" width="67" height="36" transform="rotate(-90 309 468)" fill="#5A9E24"/>
<rect x="309" y="401" width="67" height="36" transform="rotate(-90 309 401)" fill="black"/>
<rect x="309" y="334" width="67" height="36" transform="rotate(-90 309 334)" fill="#5A9E24"/>
<rect x="309" y="267" width="67" height="36" transform="rotate(-90 309 267)" fill="black"/>
<rect x="309" y="200" width="67" height="36" transform="rotate(-90 309 200)" fill="#5A9E24"/>
<rect x="309" y="133" width="67" height="36" transform="rotate(-90 309 133)" fill="black"/>
<rect x="309" y="66" width="67" height="36" transform="rotate(-90 309 66)" fill="#5A9E24"/>
<rect x="309" y="803" width="67" height="36" transform="rotate(-90 309 803)" fill="black"/>
<rect x="309" y="736" width="67" height="36" transform="rotate(-90 309 736)" fill="#5A9E24"/>
<rect x="309" y="669" width="67" height="36" transform="rotate(-90 309 669)" fill="black"/>
<rect x="75" y="669" width="67" height="36" transform="rotate(-90 75 669)" fill="#5A9E24"/>
<rect x="75" y="602" width="67" height="36" transform="rotate(-90 75 602)" fill="black"/>
<rect x="75" y="535" width="67" height="36" transform="rotate(-90 75 535)" fill="#5A9E24"/>
<rect x="75" y="468" width="67" height="36" transform="rotate(-90 75 468)" fill="black"/>
<rect x="75" y="401" width="67" height="36" transform="rotate(-90 75 401)" fill="#5A9E24"/>
<rect x="75" y="334" width="67" height="36" transform="rotate(-90 75 334)" fill="black"/>
<rect x="75" y="267" width="67" height="36" transform="rotate(-90 75 267)" fill="#5A9E24"/>
<rect x="75" y="200" width="67" height="36" transform="rotate(-90 75 200)" fill="black"/>
<rect x="75" y="133" width="67" height="36" transform="rotate(-90 75 133)" fill="#5A9E24"/>
<rect x="75" y="66" width="67" height="36" transform="rotate(-90 75 66)" fill="black"/>
<rect x="75" y="803" width="67" height="36" transform="rotate(-90 75 803)" fill="#5A9E24"/>
<rect x="75" y="736" width="67" height="36" transform="rotate(-90 75 736)" fill="black"/>
<rect x="149" y="794" width="67" height="36" transform="rotate(-90 149 794)" fill="black"/>
<rect x="149" y="727" width="67" height="36" transform="rotate(-90 149 727)" fill="#5A9E24"/>
<rect x="149" y="660" width="67" height="36" transform="rotate(-90 149 660)" fill="black"/>
<rect x="149" y="325" width="67" height="36" transform="rotate(-90 149 325)" fill="#5A9E24"/>
<rect x="149" y="258" width="67" height="36" transform="rotate(-90 149 258)" fill="black"/>
<rect x="149" y="191" width="67" height="36" transform="rotate(-90 149 191)" fill="#5A9E24"/>
<rect x="149" y="124" width="67" height="36" transform="rotate(-90 149 124)" fill="black"/>
<rect x="149" y="57" width="67" height="36" transform="rotate(-90 149 57)" fill="#5A9E24"/>
<rect x="149" y="593" width="67" height="36" transform="rotate(-90 149 593)" fill="#5A9E24"/>
<rect x="149" y="526" width="67" height="36" transform="rotate(-90 149 526)" fill="black"/>
<rect x="149" y="459" width="67" height="36" transform="rotate(-90 149 459)" fill="#5A9E24"/>
<rect x="149" y="392" width="67" height="36" transform="rotate(-90 149 392)" fill="black"/>
<rect x="227" y="794" width="67" height="36" transform="rotate(-90 227 794)" fill="#5A9E24"/>
<rect x="227" y="727" width="67" height="36" transform="rotate(-90 227 727)" fill="black"/>
<rect x="227" y="660" width="67" height="36" transform="rotate(-90 227 660)" fill="#5A9E24"/>
<rect x="227" y="593" width="67" height="36" transform="rotate(-90 227 593)" fill="black"/>
<rect x="227" y="258" width="67" height="36" transform="rotate(-90 227 258)" fill="#5A9E24"/>
<rect x="227" y="191" width="67" height="36" transform="rotate(-90 227 191)" fill="black"/>
<rect x="227" y="124" width="67" height="36" transform="rotate(-90 227 124)" fill="#5A9E24"/>
<rect x="227" y="57" width="67" height="36" transform="rotate(-90 227 57)" fill="black"/>
<rect x="227" y="526" width="67" height="36" transform="rotate(-90 227 526)" fill="#5A9E24"/>
<rect x="227" y="459" width="67" height="36" transform="rotate(-90 227 459)" fill="black"/>
<rect x="227" y="392" width="67" height="36" transform="rotate(-90 227 392)" fill="#5A9E24"/>
<rect x="227" y="325" width="67" height="36" transform="rotate(-90 227 325)" fill="black"/>
<rect x="465" y="564" width="67" height="36" transform="rotate(-90 465 564)" fill="#5A9E24"/>
<rect x="465" y="497" width="67" height="36" transform="rotate(-90 465 497)" fill="black"/>
<rect x="465" y="430" width="67" height="36" transform="rotate(-90 465 430)" fill="#5A9E24"/>
<rect x="465" y="363" width="67" height="36" transform="rotate(-90 465 363)" fill="black"/>
<rect x="465" y="296" width="67" height="36" transform="rotate(-90 465 296)" fill="#5A9E24"/>
<rect x="465" y="229" width="67" height="36" transform="rotate(-90 465 229)" fill="black"/>
<rect x="465" y="162" width="67" height="36" transform="rotate(-90 465 162)" fill="#5A9E24"/>
<rect x="465" y="95" width="67" height="36" transform="rotate(-90 465 95)" fill="black"/>
<rect x="465" y="28" width="67" height="36" transform="rotate(-90 465 28)" fill="#5A9E24"/>
<rect x="465" y="832" width="67" height="36" transform="rotate(-90 465 832)" fill="#5A9E24"/>
<rect x="465" y="765" width="67" height="36" transform="rotate(-90 465 765)" fill="black"/>
<rect x="465" y="698" width="67" height="36" transform="rotate(-90 465 698)" fill="#5A9E24"/>
<rect x="465" y="631" width="67" height="36" transform="rotate(-90 465 631)" fill="black"/>
<rect x="852" y="640" width="67" height="36" transform="rotate(-90 852 640)" fill="#5A9E24"/>
<rect x="852" y="573" width="67" height="36" transform="rotate(-90 852 573)" fill="black"/>
<rect x="852" y="506" width="67" height="36" transform="rotate(-90 852 506)" fill="#5A9E24"/>
<rect x="852" y="439" width="67" height="36" transform="rotate(-90 852 439)" fill="black"/>
<rect x="852" y="372" width="67" height="36" transform="rotate(-90 852 372)" fill="#5A9E24"/>
<rect x="852" y="305" width="67" height="36" transform="rotate(-90 852 305)" fill="black"/>
<rect x="852" y="238" width="67" height="36" transform="rotate(-90 852 238)" fill="#5A9E24"/>
<rect x="852" y="171" width="67" height="36" transform="rotate(-90 852 171)" fill="black"/>
<rect x="852" y="104" width="67" height="36" transform="rotate(-90 852 104)" fill="#5A9E24"/>
<rect x="852" y="37" width="67" height="36" transform="rotate(-90 852 37)" fill="black"/>
<rect x="852" y="841" width="67" height="36" transform="rotate(-90 852 841)" fill="black"/>
<rect x="852" y="774" width="67" height="36" transform="rotate(-90 852 774)" fill="#5A9E24"/>
<rect x="852" y="707" width="67" height="36" transform="rotate(-90 852 707)" fill="black"/>
<rect x="774" y="573" width="67" height="36" transform="rotate(-90 774 573)" fill="#5A9E24"/>
<rect x="774" y="506" width="67" height="36" transform="rotate(-90 774 506)" fill="black"/>
<rect x="774" y="439" width="67" height="36" transform="rotate(-90 774 439)" fill="#5A9E24"/>
<rect x="774" y="372" width="67" height="36" transform="rotate(-90 774 372)" fill="black"/>
<rect x="774" y="305" width="67" height="36" transform="rotate(-90 774 305)" fill="#5A9E24"/>
<rect x="774" y="238" width="67" height="36" transform="rotate(-90 774 238)" fill="black"/>
<rect x="774" y="171" width="67" height="36" transform="rotate(-90 774 171)" fill="#5A9E24"/>
<rect x="774" y="104" width="67" height="36" transform="rotate(-90 774 104)" fill="black"/>
<rect x="774" y="37" width="67" height="36" transform="rotate(-90 774 37)" fill="#5A9E24"/>
<rect x="774" y="841" width="67" height="36" transform="rotate(-90 774 841)" fill="#5A9E24"/>
<rect x="774" y="774" width="67" height="36" transform="rotate(-90 774 774)" fill="black"/>
<rect x="774" y="707" width="67" height="36" transform="rotate(-90 774 707)" fill="#5A9E24"/>
<rect x="774" y="640" width="67" height="36" transform="rotate(-90 774 640)" fill="black"/>
<rect x="540" y="640" width="67" height="36" transform="rotate(-90 540 640)" fill="#5A9E24"/>
<rect x="540" y="573" width="67" height="36" transform="rotate(-90 540 573)" fill="black"/>
<rect x="540" y="506" width="67" height="36" transform="rotate(-90 540 506)" fill="#5A9E24"/>
<rect x="540" y="439" width="67" height="36" transform="rotate(-90 540 439)" fill="black"/>
<rect x="540" y="372" width="67" height="36" transform="rotate(-90 540 372)" fill="#5A9E24"/>
<rect x="540" y="305" width="67" height="36" transform="rotate(-90 540 305)" fill="black"/>
<rect x="540" y="238" width="67" height="36" transform="rotate(-90 540 238)" fill="#5A9E24"/>
<rect x="540" y="171" width="67" height="36" transform="rotate(-90 540 171)" fill="black"/>
<rect x="540" y="104" width="67" height="36" transform="rotate(-90 540 104)" fill="#5A9E24"/>
<rect x="540" y="37" width="67" height="36" transform="rotate(-90 540 37)" fill="black"/>
<rect x="540" y="774" width="67" height="36" transform="rotate(-90 540 774)" fill="#5A9E24"/>
<rect x="540" y="707" width="67" height="36" transform="rotate(-90 540 707)" fill="black"/>
<rect x="614" y="850" width="67" height="36" transform="rotate(-90 614 850)" fill="#5A9E24"/>
<rect x="614" y="783" width="67" height="36" transform="rotate(-90 614 783)" fill="black"/>
<rect x="614" y="716" width="67" height="36" transform="rotate(-90 614 716)" fill="#5A9E24"/>
<rect x="614" y="649" width="67" height="36" transform="rotate(-90 614 649)" fill="black"/>
<rect x="614" y="314" width="67" height="36" transform="rotate(-90 614 314)" fill="#5A9E24"/>
<rect x="614" y="247" width="67" height="36" transform="rotate(-90 614 247)" fill="black"/>
<rect x="614" y="180" width="67" height="36" transform="rotate(-90 614 180)" fill="#5A9E24"/>
<rect x="614" y="113" width="67" height="36" transform="rotate(-90 614 113)" fill="black"/>
<rect x="614" y="46" width="67" height="36" transform="rotate(-90 614 46)" fill="#5A9E24"/>
<rect x="614" y="582" width="67" height="36" transform="rotate(-90 614 582)" fill="#5A9E24"/>
<rect x="614" y="515" width="67" height="36" transform="rotate(-90 614 515)" fill="black"/>
<rect x="614" y="448" width="67" height="36" transform="rotate(-90 614 448)" fill="#5A9E24"/>
<rect x="614" y="381" width="67" height="36" transform="rotate(-90 614 381)" fill="black"/>
<rect x="692" y="783" width="67" height="36" transform="rotate(-90 692 783)" fill="#5A9E24"/>
<rect x="692" y="716" width="67" height="36" transform="rotate(-90 692 716)" fill="black"/>
<rect x="692" y="649" width="67" height="36" transform="rotate(-90 692 649)" fill="#5A9E24"/>
<rect x="692" y="582" width="67" height="36" transform="rotate(-90 692 582)" fill="black"/>
<rect x="692" y="247" width="67" height="36" transform="rotate(-90 692 247)" fill="#5A9E24"/>
<rect x="692" y="180" width="67" height="36" transform="rotate(-90 692 180)" fill="black"/>
<rect x="692" y="113" width="67" height="36" transform="rotate(-90 692 113)" fill="#5A9E24"/>
<rect x="692" y="46" width="67" height="36" transform="rotate(-90 692 46)" fill="black"/>
<rect x="692" y="515" width="67" height="36" transform="rotate(-90 692 515)" fill="#5A9E24"/>
<rect x="692" y="448" width="67" height="36" transform="rotate(-90 692 448)" fill="black"/>
<rect x="692" y="381" width="67" height="36" transform="rotate(-90 692 381)" fill="#5A9E24"/>
<rect x="692" y="314" width="67" height="36" transform="rotate(-90 692 314)" fill="black"/>
<rect x="926" y="580" width="67" height="36" transform="rotate(-90 926 580)" fill="#5A9E24"/>
<rect x="926" y="513" width="67" height="36" transform="rotate(-90 926 513)" fill="black"/>
<rect x="926" y="446" width="67" height="36" transform="rotate(-90 926 446)" fill="#5A9E24"/>
<rect x="926" y="379" width="67" height="36" transform="rotate(-90 926 379)" fill="black"/>
<rect x="926" y="312" width="67" height="36" transform="rotate(-90 926 312)" fill="#5A9E24"/>
<rect x="926" y="245" width="67" height="36" transform="rotate(-90 926 245)" fill="black"/>
<rect x="926" y="178" width="67" height="36" transform="rotate(-90 926 178)" fill="#5A9E24"/>
<rect x="926" y="111" width="67" height="36" transform="rotate(-90 926 111)" fill="black"/>
<rect x="926" y="44" width="67" height="36" transform="rotate(-90 926 44)" fill="#5A9E24"/>
<rect x="926" y="848" width="67" height="36" transform="rotate(-90 926 848)" fill="#5A9E24"/>
<rect x="926" y="781" width="67" height="36" transform="rotate(-90 926 781)" fill="black"/>
<rect x="926" y="714" width="67" height="36" transform="rotate(-90 926 714)" fill="#5A9E24"/>
<rect x="926" y="647" width="67" height="36" transform="rotate(-90 926 647)" fill="black"/>
<rect x="1313" y="656" width="67" height="36" transform="rotate(-90 1313 656)" fill="#5A9E24"/>
<rect x="1313" y="589" width="67" height="36" transform="rotate(-90 1313 589)" fill="black"/>
<rect x="1313" y="522" width="67" height="36" transform="rotate(-90 1313 522)" fill="#5A9E24"/>
<rect x="1313" y="455" width="67" height="36" transform="rotate(-90 1313 455)" fill="black"/>
<rect x="1313" y="388" width="67" height="36" transform="rotate(-90 1313 388)" fill="#5A9E24"/>
<rect x="1313" y="321" width="67" height="36" transform="rotate(-90 1313 321)" fill="black"/>
<rect x="1313" y="254" width="67" height="36" transform="rotate(-90 1313 254)" fill="#5A9E24"/>
<rect x="1313" y="187" width="67" height="36" transform="rotate(-90 1313 187)" fill="black"/>
<rect x="1313" y="120" width="67" height="36" transform="rotate(-90 1313 120)" fill="#5A9E24"/>
<rect x="1313" y="53" width="67" height="36" transform="rotate(-90 1313 53)" fill="black"/>
<rect x="1313" y="790" width="67" height="36" transform="rotate(-90 1313 790)" fill="#5A9E24"/>
<rect x="1313" y="723" width="67" height="36" transform="rotate(-90 1313 723)" fill="black"/>
<rect x="1235" y="589" width="67" height="36" transform="rotate(-90 1235 589)" fill="#5A9E24"/>
<rect x="1235" y="522" width="67" height="36" transform="rotate(-90 1235 522)" fill="black"/>
<rect x="1235" y="455" width="67" height="36" transform="rotate(-90 1235 455)" fill="#5A9E24"/>
<rect x="1235" y="388" width="67" height="36" transform="rotate(-90 1235 388)" fill="black"/>
<rect x="1235" y="321" width="67" height="36" transform="rotate(-90 1235 321)" fill="#5A9E24"/>
<rect x="1235" y="254" width="67" height="36" transform="rotate(-90 1235 254)" fill="black"/>
<rect x="1235" y="187" width="67" height="36" transform="rotate(-90 1235 187)" fill="#5A9E24"/>
<rect x="1235" y="120" width="67" height="36" transform="rotate(-90 1235 120)" fill="black"/>
<rect x="1235" y="53" width="67" height="36" transform="rotate(-90 1235 53)" fill="#5A9E24"/>
<rect x="1235" y="790" width="67" height="36" transform="rotate(-90 1235 790)" fill="black"/>
<rect x="1235" y="723" width="67" height="36" transform="rotate(-90 1235 723)" fill="#5A9E24"/>
<rect x="1235" y="656" width="67" height="36" transform="rotate(-90 1235 656)" fill="black"/>
<rect x="1387" y="589" width="67" height="36" transform="rotate(-90 1387 589)" fill="#5A9E24"/>
<rect x="1387" y="522" width="67" height="36" transform="rotate(-90 1387 522)" fill="black"/>
<rect x="1387" y="455" width="67" height="36" transform="rotate(-90 1387 455)" fill="#5A9E24"/>
<rect x="1387" y="388" width="67" height="36" transform="rotate(-90 1387 388)" fill="black"/>
<rect x="1387" y="321" width="67" height="36" transform="rotate(-90 1387 321)" fill="#5A9E24"/>
<rect x="1387" y="254" width="67" height="36" transform="rotate(-90 1387 254)" fill="black"/>
<rect x="1387" y="187" width="67" height="36" transform="rotate(-90 1387 187)" fill="#5A9E24"/>
<rect x="1387" y="120" width="67" height="36" transform="rotate(-90 1387 120)" fill="black"/>
<rect x="1387" y="53" width="67" height="36" transform="rotate(-90 1387 53)" fill="#5A9E24"/>
<rect x="1387" y="790" width="67" height="36" transform="rotate(-90 1387 790)" fill="black"/>
<rect x="1387" y="723" width="67" height="36" transform="rotate(-90 1387 723)" fill="#5A9E24"/>
<rect x="1387" y="656" width="67" height="36" transform="rotate(-90 1387 656)" fill="black"/>
<rect x="1001" y="656" width="67" height="36" transform="rotate(-90 1001 656)" fill="#5A9E24"/>
<rect x="1001" y="589" width="67" height="36" transform="rotate(-90 1001 589)" fill="black"/>
<rect x="1001" y="522" width="67" height="36" transform="rotate(-90 1001 522)" fill="#5A9E24"/>
<rect x="1001" y="455" width="67" height="36" transform="rotate(-90 1001 455)" fill="black"/>
<rect x="1001" y="388" width="67" height="36" transform="rotate(-90 1001 388)" fill="#5A9E24"/>
<rect x="1001" y="321" width="67" height="36" transform="rotate(-90 1001 321)" fill="black"/>
<rect x="1001" y="254" width="67" height="36" transform="rotate(-90 1001 254)" fill="#5A9E24"/>
<rect x="1001" y="187" width="67" height="36" transform="rotate(-90 1001 187)" fill="black"/>
<rect x="1001" y="120" width="67" height="36" transform="rotate(-90 1001 120)" fill="#5A9E24"/>
<rect x="1001" y="53" width="67" height="36" transform="rotate(-90 1001 53)" fill="black"/>
<rect x="1001" y="790" width="67" height="36" transform="rotate(-90 1001 790)" fill="#5A9E24"/>
<rect x="1001" y="723" width="67" height="36" transform="rotate(-90 1001 723)" fill="black"/>
<rect x="1075" y="848" width="67" height="36" transform="rotate(-90 1075 848)" fill="#5A9E24"/>
<rect x="1075" y="781" width="67" height="36" transform="rotate(-90 1075 781)" fill="black"/>
<rect x="1075" y="714" width="67" height="36" transform="rotate(-90 1075 714)" fill="#5A9E24"/>
<rect x="1075" y="647" width="67" height="36" transform="rotate(-90 1075 647)" fill="black"/>
<rect x="1075" y="312" width="67" height="36" transform="rotate(-90 1075 312)" fill="#5A9E24"/>
<rect x="1075" y="245" width="67" height="36" transform="rotate(-90 1075 245)" fill="black"/>
<rect x="1075" y="178" width="67" height="36" transform="rotate(-90 1075 178)" fill="#5A9E24"/>
<rect x="1075" y="111" width="67" height="36" transform="rotate(-90 1075 111)" fill="black"/>
<rect x="1075" y="44" width="67" height="36" transform="rotate(-90 1075 44)" fill="#5A9E24"/>
<rect x="1075" y="580" width="67" height="36" transform="rotate(-90 1075 580)" fill="#5A9E24"/>
<rect x="1075" y="513" width="67" height="36" transform="rotate(-90 1075 513)" fill="black"/>
<rect x="1075" y="446" width="67" height="36" transform="rotate(-90 1075 446)" fill="#5A9E24"/>
<rect x="1075" y="379" width="67" height="36" transform="rotate(-90 1075 379)" fill="black"/>
<rect x="1153" y="781" width="67" height="36" transform="rotate(-90 1153 781)" fill="#5A9E24"/>
<rect x="1153" y="714" width="67" height="36" transform="rotate(-90 1153 714)" fill="black"/>
<rect x="1153" y="647" width="67" height="36" transform="rotate(-90 1153 647)" fill="#5A9E24"/>
<rect x="1153" y="580" width="67" height="36" transform="rotate(-90 1153 580)" fill="black"/>
<rect x="1153" y="245" width="67" height="36" transform="rotate(-90 1153 245)" fill="#5A9E24"/>
<rect x="1153" y="178" width="67" height="36" transform="rotate(-90 1153 178)" fill="black"/>
<rect x="1153" y="111" width="67" height="36" transform="rotate(-90 1153 111)" fill="#5A9E24"/>
<rect x="1153" y="44" width="67" height="36" transform="rotate(-90 1153 44)" fill="black"/>
<rect x="1153" y="513" width="67" height="36" transform="rotate(-90 1153 513)" fill="#5A9E24"/>
<rect x="1153" y="446" width="67" height="36" transform="rotate(-90 1153 446)" fill="black"/>
<rect x="1153" y="379" width="67" height="36" transform="rotate(-90 1153 379)" fill="#5A9E24"/>
<rect x="1153" y="312" width="67" height="36" transform="rotate(-90 1153 312)" fill="black"/>
</g>
<defs>
<clipPath id="clip0_207_8347">
<rect width="1440" height="784" fill="white"/>
</clipPath>
</defs>
</svg>
