<svg width="1440" height="784" viewBox="0 0 1440 784" fill="none" xmlns="http://www.w3.org/2000/svg">
<g clip-path="url(#clip0_394_407)">
<rect width="1440" height="784" fill="#D9D9D9"/>
<rect y="549" width="67" height="27" transform="rotate(-90 0 549)" fill="#5A9E24"/>
<rect y="482" width="67" height="27" transform="rotate(-90 0 482)" fill="black"/>
<rect y="415" width="67" height="27" transform="rotate(-90 0 415)" fill="#5A9E24"/>
<rect y="348" width="67" height="27" transform="rotate(-90 0 348)" fill="black"/>
<rect y="281" width="67" height="27" transform="rotate(-90 0 281)" fill="#5A9E24"/>
<rect y="214" width="67" height="27" transform="rotate(-90 0 214)" fill="black"/>
<rect y="147" width="67" height="27" transform="rotate(-90 0 147)" fill="#5A9E24"/>
<rect y="80" width="67" height="27" transform="rotate(-90 0 80)" fill="black"/>
<rect y="13" width="67" height="27" transform="rotate(-90 0 13)" fill="#5A9E24"/>
<rect y="817" width="67" height="27" transform="rotate(-90 0 817)" fill="#5A9E24"/>
<rect y="750" width="67" height="27" transform="rotate(-90 0 750)" fill="black"/>
<rect y="683" width="67" height="27" transform="rotate(-90 0 683)" fill="#5A9E24"/>
<rect y="616" width="67" height="27" transform="rotate(-90 0 616)" fill="black"/>
<rect x="1413" y="27" width="63" height="27" transform="rotate(-180 1413 27)" fill="#E7410A"/>
<rect x="1350" y="27" width="63" height="27" transform="rotate(-180 1350 27)" fill="#FFDD55"/>
<rect x="1287" y="27" width="63" height="27" transform="rotate(-180 1287 27)" fill="#E7410A"/>
<rect x="1224" y="27" width="63" height="27" transform="rotate(-180 1224 27)" fill="#FFDD55"/>
<rect x="909" y="27" width="63" height="27" transform="rotate(-180 909 27)" fill="#E7410A"/>
<rect x="846" y="27" width="63" height="27" transform="rotate(-180 846 27)" fill="#FFDD55"/>
<rect x="783" y="27" width="63" height="27" transform="rotate(-180 783 27)" fill="#E7410A"/>
<rect x="720" y="27" width="63" height="27" transform="rotate(-180 720 27)" fill="#FFDD55"/>
<rect x="657" y="27" width="63" height="27" transform="rotate(-180 657 27)" fill="#E7410A"/>
<rect x="594" y="27" width="63" height="27" transform="rotate(-180 594 27)" fill="#FFDD55"/>
<rect x="531" y="27" width="63" height="27" transform="rotate(-180 531 27)" fill="#E7410A"/>
<rect x="468" y="27" width="63" height="27" transform="rotate(-180 468 27)" fill="#FFDD55"/>
<rect x="405" y="27" width="63" height="27" transform="rotate(-180 405 27)" fill="#E7410A"/>
<rect x="342" y="27" width="63" height="27" transform="rotate(-180 342 27)" fill="#FFDD55"/>
<rect x="279" y="27" width="63" height="27" transform="rotate(-180 279 27)" fill="#E7410A"/>
<rect x="216" y="27" width="63" height="27" transform="rotate(-180 216 27)" fill="#FFDD55"/>
<rect x="153" y="27" width="63" height="27" transform="rotate(-180 153 27)" fill="#E7410A"/>
<rect x="90" y="27" width="63" height="27" transform="rotate(-180 90 27)" fill="#FFDD55"/>
<rect x="1161" y="27" width="63" height="27" transform="rotate(-180 1161 27)" fill="#E7410A"/>
<rect x="1098" y="27" width="63" height="27" transform="rotate(-180 1098 27)" fill="#FFDD55"/>
<rect x="1035" y="27" width="63" height="27" transform="rotate(-180 1035 27)" fill="#E7410A"/>
<rect x="972" y="27" width="63" height="27" transform="rotate(-180 972 27)" fill="#FFDD55"/>
<rect x="1413" y="784" width="63" height="27" transform="rotate(-180 1413 784)" fill="#565CEF"/>
<rect x="1350" y="784" width="63" height="27" transform="rotate(-180 1350 784)" fill="#FFDD55"/>
<rect x="1287" y="784" width="63" height="27" transform="rotate(-180 1287 784)" fill="#565CEF"/>
<rect x="1224" y="784" width="63" height="27" transform="rotate(-180 1224 784)" fill="#FFDD55"/>
<rect x="909" y="784" width="63" height="27" transform="rotate(-180 909 784)" fill="#565CEF"/>
<rect x="846" y="784" width="63" height="27" transform="rotate(-180 846 784)" fill="#FFDD55"/>
<rect x="783" y="784" width="63" height="27" transform="rotate(-180 783 784)" fill="#565CEF"/>
<rect x="720" y="784" width="63" height="27" transform="rotate(-180 720 784)" fill="#FFDD55"/>
<rect x="657" y="784" width="63" height="27" transform="rotate(-180 657 784)" fill="#565CEF"/>
<rect x="594" y="784" width="63" height="27" transform="rotate(-180 594 784)" fill="#FFDD55"/>
<rect x="531" y="784" width="63" height="27" transform="rotate(-180 531 784)" fill="#565CEF"/>
<rect x="468" y="784" width="63" height="27" transform="rotate(-180 468 784)" fill="#FFDD55"/>
<rect x="405" y="784" width="63" height="27" transform="rotate(-180 405 784)" fill="#565CEF"/>
<rect x="342" y="784" width="63" height="27" transform="rotate(-180 342 784)" fill="#FFDD55"/>
<rect x="279" y="784" width="63" height="27" transform="rotate(-180 279 784)" fill="#565CEF"/>
<rect x="216" y="784" width="63" height="27" transform="rotate(-180 216 784)" fill="#FFDD55"/>
<rect x="153" y="784" width="63" height="27" transform="rotate(-180 153 784)" fill="#565CEF"/>
<rect x="90" y="784" width="63" height="27" transform="rotate(-180 90 784)" fill="#FFDD55"/>
<rect x="1161" y="784" width="63" height="27" transform="rotate(-180 1161 784)" fill="#565CEF"/>
<rect x="1098" y="784" width="63" height="27" transform="rotate(-180 1098 784)" fill="#FFDD55"/>
<rect x="1035" y="784" width="63" height="27" transform="rotate(-180 1035 784)" fill="#565CEF"/>
<rect x="972" y="784" width="63" height="27" transform="rotate(-180 972 784)" fill="#FFDD55"/>
<rect x="1413" y="848" width="67" height="27" transform="rotate(-90 1413 848)" fill="black"/>
<rect x="1413" y="513" width="67" height="27" transform="rotate(-90 1413 513)" fill="#EDEF7C"/>
<rect x="1413" y="446" width="67" height="27" transform="rotate(-90 1413 446)" fill="black"/>
<rect x="1413" y="379" width="67" height="27" transform="rotate(-90 1413 379)" fill="#EDEF7C"/>
<rect x="1413" y="312" width="67" height="27" transform="rotate(-90 1413 312)" fill="black"/>
<rect x="1413" y="245" width="67" height="27" transform="rotate(-90 1413 245)" fill="#EDEF7C"/>
<rect x="1413" y="178" width="67" height="27" transform="rotate(-90 1413 178)" fill="black"/>
<rect x="1413" y="111" width="67" height="27" transform="rotate(-90 1413 111)" fill="#EDEF7C"/>
<rect x="1413" y="44" width="67" height="27" transform="rotate(-90 1413 44)" fill="black"/>
<rect x="1413" y="781" width="67" height="27" transform="rotate(-90 1413 781)" fill="#EDEF7C"/>
<rect x="1413" y="714" width="67" height="27" transform="rotate(-90 1413 714)" fill="black"/>
<rect x="1413" y="647" width="67" height="27" transform="rotate(-90 1413 647)" fill="#EDEF7C"/>
<rect x="1413" y="580" width="67" height="27" transform="rotate(-90 1413 580)" fill="black"/>
</g>
<defs>
<clipPath id="clip0_394_407">
<rect width="1440" height="784" fill="white"/>
</clipPath>
</defs>
</svg>
