<svg width="1440" height="793" viewBox="0 0 1440 793" fill="none" xmlns="http://www.w3.org/2000/svg">
<g clip-path="url(#clip0_315_3458)">
<rect width="1440" height="793" fill="white"/>
<rect y="593" width="67" height="36" transform="rotate(-90 0 593)" fill="#5A9E24"/>
<rect y="526" width="67" height="36" transform="rotate(-90 0 526)" fill="black"/>
<rect y="459" width="67" height="36" transform="rotate(-90 0 459)" fill="#5A9E24"/>
<rect y="392" width="67" height="36" transform="rotate(-90 0 392)" fill="black"/>
<rect y="325" width="67" height="36" transform="rotate(-90 0 325)" fill="#5A9E24"/>
<rect y="258" width="67" height="36" transform="rotate(-90 0 258)" fill="black"/>
<rect y="191" width="67" height="36" transform="rotate(-90 0 191)" fill="#5A9E24"/>
<rect y="124" width="67" height="36" transform="rotate(-90 0 124)" fill="black"/>
<rect y="57" width="67" height="36" transform="rotate(-90 0 57)" fill="#5A9E24"/>
<rect y="794" width="67" height="36" transform="rotate(-90 0 794)" fill="black"/>
<rect y="727" width="67" height="36" transform="rotate(-90 0 727)" fill="#5A9E24"/>
<rect y="660" width="67" height="36" transform="rotate(-90 0 660)" fill="black"/>
<rect x="1404" y="793" width="62.1818" height="36" transform="rotate(-180 1404 793)" fill="#0A66C2"/>
<rect x="1341.82" y="793" width="62.1818" height="36" transform="rotate(-180 1341.82 793)" fill="#EDEF7C"/>
<rect x="1279.64" y="793" width="62.1818" height="36" transform="rotate(-180 1279.64 793)" fill="#0A66C2"/>
<rect x="1217.46" y="793" width="62.1818" height="36" transform="rotate(-180 1217.46 793)" fill="#EDEF7C"/>
<rect x="906.545" y="793" width="62.1818" height="36" transform="rotate(-180 906.545 793)" fill="#0A66C2"/>
<rect x="844.363" y="793" width="62.1818" height="36" transform="rotate(-180 844.363 793)" fill="#EDEF7C"/>
<rect x="782.182" y="793" width="62.1818" height="36" transform="rotate(-180 782.182 793)" fill="#0A66C2"/>
<rect x="720" y="793" width="62.1818" height="36" transform="rotate(-180 720 793)" fill="#EDEF7C"/>
<rect x="657.818" y="793" width="62.1818" height="36" transform="rotate(-180 657.818 793)" fill="#0A66C2"/>
<rect x="595.637" y="793" width="62.1818" height="36" transform="rotate(-180 595.637 793)" fill="#EDEF7C"/>
<rect x="533.455" y="793" width="62.1818" height="36" transform="rotate(-180 533.455 793)" fill="#0A66C2"/>
<rect x="471.273" y="793" width="62.1818" height="36" transform="rotate(-180 471.273 793)" fill="#EDEF7C"/>
<rect x="409.092" y="793" width="62.1818" height="36" transform="rotate(-180 409.092 793)" fill="#0A66C2"/>
<rect x="346.908" y="793" width="62.1818" height="36" transform="rotate(-180 346.908 793)" fill="#EDEF7C"/>
<rect x="284.727" y="793" width="62.1818" height="36" transform="rotate(-180 284.727 793)" fill="#0A66C2"/>
<rect x="222.545" y="793" width="62.1818" height="36" transform="rotate(-180 222.545 793)" fill="#EDEF7C"/>
<rect x="160.363" y="793" width="62.1818" height="36" transform="rotate(-180 160.363 793)" fill="#0A66C2"/>
<rect x="98.1816" y="793" width="62.1818" height="36" transform="rotate(-180 98.1816 793)" fill="#EDEF7C"/>
<rect x="1155.27" y="793" width="62.1818" height="36" transform="rotate(-180 1155.27 793)" fill="#0A66C2"/>
<rect x="1093.09" y="793" width="62.1818" height="36" transform="rotate(-180 1093.09 793)" fill="#EDEF7C"/>
<rect x="1030.91" y="793" width="62.1818" height="36" transform="rotate(-180 1030.91 793)" fill="#0A66C2"/>
<rect x="968.727" y="793" width="62.1818" height="36" transform="rotate(-180 968.727 793)" fill="#EDEF7C"/>
<rect x="1422" y="36" width="63" height="36" transform="rotate(-180 1422 36)" fill="#EDEF7C"/>
<rect x="1359" y="36" width="63" height="36" transform="rotate(-180 1359 36)" fill="#FF543E"/>
<rect x="1296" y="36" width="63" height="36" transform="rotate(-180 1296 36)" fill="#EDEF7C"/>
<rect x="1233" y="36" width="63" height="36" transform="rotate(-180 1233 36)" fill="#FF543E"/>
<rect x="918" y="36" width="63" height="36" transform="rotate(-180 918 36)" fill="#EDEF7C"/>
<rect x="855" y="36" width="63" height="36" transform="rotate(-180 855 36)" fill="#FF543E"/>
<rect x="792" y="36" width="63" height="36" transform="rotate(-180 792 36)" fill="#EDEF7C"/>
<rect x="729" y="36" width="63" height="36" transform="rotate(-180 729 36)" fill="#FF543E"/>
<rect x="666" y="36" width="63" height="36" transform="rotate(-180 666 36)" fill="#EDEF7C"/>
<rect x="603" y="36" width="63" height="36" transform="rotate(-180 603 36)" fill="#FF543E"/>
<rect x="540" y="36" width="63" height="36" transform="rotate(-180 540 36)" fill="#EDEF7C"/>
<rect x="477" y="36" width="63" height="36" transform="rotate(-180 477 36)" fill="#FF543E"/>
<rect x="414" y="36" width="63" height="36" transform="rotate(-180 414 36)" fill="#EDEF7C"/>
<rect x="351" y="36" width="63" height="36" transform="rotate(-180 351 36)" fill="#FF543E"/>
<rect x="288" y="36" width="63" height="36" transform="rotate(-180 288 36)" fill="#EDEF7C"/>
<rect x="225" y="36" width="63" height="36" transform="rotate(-180 225 36)" fill="#FF543E"/>
<rect x="162" y="36" width="63" height="36" transform="rotate(-180 162 36)" fill="#EDEF7C"/>
<rect x="99" y="36" width="63" height="36" transform="rotate(-180 99 36)" fill="#FF543E"/>
<rect x="1170" y="36" width="63" height="36" transform="rotate(-180 1170 36)" fill="#EDEF7C"/>
<rect x="1107" y="36" width="63" height="36" transform="rotate(-180 1107 36)" fill="#FF543E"/>
<rect x="1044" y="36" width="63" height="36" transform="rotate(-180 1044 36)" fill="#EDEF7C"/>
<rect x="981" y="36" width="63" height="36" transform="rotate(-180 981 36)" fill="#FF543E"/>
<rect x="1404" y="596" width="67" height="36" transform="rotate(-90 1404 596)" fill="#5A9E24"/>
<rect x="1404" y="529" width="67" height="36" transform="rotate(-90 1404 529)" fill="black"/>
<rect x="1404" y="462" width="67" height="36" transform="rotate(-90 1404 462)" fill="#5A9E24"/>
<rect x="1404" y="395" width="67" height="36" transform="rotate(-90 1404 395)" fill="black"/>
<rect x="1404" y="328" width="67" height="36" transform="rotate(-90 1404 328)" fill="#5A9E24"/>
<rect x="1404" y="261" width="67" height="36" transform="rotate(-90 1404 261)" fill="black"/>
<rect x="1404" y="194" width="67" height="36" transform="rotate(-90 1404 194)" fill="#5A9E24"/>
<rect x="1404" y="127" width="67" height="36" transform="rotate(-90 1404 127)" fill="black"/>
<rect x="1404" y="60" width="67" height="36" transform="rotate(-90 1404 60)" fill="#5A9E24"/>
<rect x="1404" y="797" width="67" height="36" transform="rotate(-90 1404 797)" fill="black"/>
<rect x="1404" y="730" width="67" height="36" transform="rotate(-90 1404 730)" fill="#5A9E24"/>
<rect x="1404" y="663" width="67" height="36" transform="rotate(-90 1404 663)" fill="black"/>
<rect x="1368" y="757" width="32.7727" height="36" transform="rotate(-90 1368 757)" fill="#5A9E24"/>
<rect x="1368" y="724.227" width="32.7727" height="36" transform="rotate(-90 1368 724.227)" fill="black"/>
<rect x="1368" y="691.455" width="32.7727" height="36" transform="rotate(-90 1368 691.455)" fill="#5A9E24"/>
<rect x="1368" y="658.682" width="32.7727" height="36" transform="rotate(-90 1368 658.682)" fill="black"/>
<rect x="1368" y="494.818" width="32.7727" height="36" transform="rotate(-90 1368 494.818)" fill="#5A9E24"/>
<rect x="1368" y="462.045" width="32.7727" height="36" transform="rotate(-90 1368 462.045)" fill="black"/>
<rect x="1368" y="429.273" width="32.7727" height="36" transform="rotate(-90 1368 429.273)" fill="#5A9E24"/>
<rect x="1368" y="396.5" width="32.7727" height="36" transform="rotate(-90 1368 396.5)" fill="black"/>
<rect x="1368" y="363.727" width="32.7727" height="36" transform="rotate(-90 1368 363.727)" fill="#5A9E24"/>
<rect x="1368" y="330.955" width="32.7727" height="36" transform="rotate(-90 1368 330.955)" fill="black"/>
<rect x="1368" y="298.182" width="32.7727" height="36" transform="rotate(-90 1368 298.182)" fill="#5A9E24"/>
<rect x="1368" y="265.408" width="32.7727" height="36" transform="rotate(-90 1368 265.408)" fill="black"/>
<rect x="1368" y="232.637" width="32.7727" height="36" transform="rotate(-90 1368 232.637)" fill="#5A9E24"/>
<rect x="1368" y="199.863" width="32.7727" height="36" transform="rotate(-90 1368 199.863)" fill="black"/>
<rect x="1368" y="167.092" width="32.7727" height="36" transform="rotate(-90 1368 167.092)" fill="#5A9E24"/>
<rect x="1368" y="134.318" width="32.7727" height="36" transform="rotate(-90 1368 134.318)" fill="black"/>
<rect x="1368" y="101.545" width="32.7727" height="36" transform="rotate(-90 1368 101.545)" fill="#5A9E24"/>
<rect x="1368" y="68.7734" width="32.7727" height="36" transform="rotate(-90 1368 68.7734)" fill="black"/>
<rect x="1368" y="625.908" width="32.7727" height="36" transform="rotate(-90 1368 625.908)" fill="#5A9E24"/>
<rect x="1368" y="593.137" width="32.7727" height="36" transform="rotate(-90 1368 593.137)" fill="black"/>
<rect x="1368" y="560.363" width="32.7727" height="36" transform="rotate(-90 1368 560.363)" fill="#5A9E24"/>
<rect x="1368" y="527.592" width="32.7727" height="36" transform="rotate(-90 1368 527.592)" fill="black"/>
<rect x="36" y="757" width="32.7727" height="1332" transform="rotate(-90 36 757)" fill="#5A9E24"/>
<rect x="36" y="724.227" width="32.7727" height="1332" transform="rotate(-90 36 724.227)" fill="black"/>
<rect x="36" y="691.455" width="32.7727" height="1332" transform="rotate(-90 36 691.455)" fill="#5A9E24"/>
<rect x="36" y="658.682" width="32.7727" height="1332" transform="rotate(-90 36 658.682)" fill="black"/>
<rect x="36" y="494.818" width="32.7727" height="1332" transform="rotate(-90 36 494.818)" fill="#5A9E24"/>
<rect x="36" y="462.045" width="32.7727" height="1332" transform="rotate(-90 36 462.045)" fill="black"/>
<rect x="36" y="429.273" width="32.7727" height="1332" transform="rotate(-90 36 429.273)" fill="#5A9E24"/>
<rect x="36" y="396.5" width="32.7727" height="1332" transform="rotate(-90 36 396.5)" fill="black"/>
<rect x="36" y="363.727" width="32.7727" height="1332" transform="rotate(-90 36 363.727)" fill="#5A9E24"/>
<rect x="36" y="330.955" width="32.7727" height="1332" transform="rotate(-90 36 330.955)" fill="black"/>
<rect x="36" y="298.182" width="32.7727" height="1332" transform="rotate(-90 36 298.182)" fill="#5A9E24"/>
<rect x="36" y="265.408" width="32.7727" height="1332" transform="rotate(-90 36 265.408)" fill="black"/>
<rect x="36" y="232.637" width="32.7727" height="1332" transform="rotate(-90 36 232.637)" fill="#5A9E24"/>
<rect x="36" y="199.863" width="32.7727" height="1332" transform="rotate(-90 36 199.863)" fill="black"/>
<rect x="36" y="167.092" width="32.7727" height="1332" transform="rotate(-90 36 167.092)" fill="#5A9E24"/>
<rect x="36" y="134.318" width="32.7727" height="1332" transform="rotate(-90 36 134.318)" fill="black"/>
<rect x="36" y="101.545" width="32.7727" height="1332" transform="rotate(-90 36 101.545)" fill="#5A9E24"/>
<rect x="36" y="68.7734" width="32.7727" height="1332" transform="rotate(-90 36 68.7734)" fill="black"/>
<rect x="36" y="625.908" width="32.7727" height="1332" transform="rotate(-90 36 625.908)" fill="#5A9E24"/>
<rect x="36" y="593.137" width="32.7727" height="1332" transform="rotate(-90 36 593.137)" fill="black"/>
<rect x="36" y="560.363" width="32.7727" height="1332" transform="rotate(-90 36 560.363)" fill="#5A9E24"/>
<rect x="36" y="527.592" width="32.7727" height="1332" transform="rotate(-90 36 527.592)" fill="black"/>
</g>
<defs>
<clipPath id="clip0_315_3458">
<rect width="1440" height="793" fill="white"/>
</clipPath>
</defs>
</svg>
