<svg width="1440" height="787" viewBox="0 0 1440 787" fill="none" xmlns="http://www.w3.org/2000/svg">
<g clip-path="url(#clip0_479_407)">
<rect width="1440" height="787" fill="#D9D9D9"/>
<rect y="541.363" width="67.9545" height="27" transform="rotate(-90 0 541.363)" fill="#5A9E24"/>
<rect y="473.408" width="67.9545" height="27" transform="rotate(-90 0 473.408)" fill="black"/>
<rect y="405.455" width="67.9545" height="27" transform="rotate(-90 0 405.455)" fill="#5A9E24"/>
<rect y="337.5" width="67.9545" height="27" transform="rotate(-90 0 337.5)" fill="black"/>
<rect y="269.545" width="67.9545" height="27" transform="rotate(-90 0 269.545)" fill="#5A9E24"/>
<rect y="201.592" width="67.9545" height="27" transform="rotate(-90 0 201.592)" fill="black"/>
<rect y="133.637" width="67.9545" height="27" transform="rotate(-90 0 133.637)" fill="#5A9E24"/>
<rect y="65.6816" width="67.9545" height="27" transform="rotate(-90 0 65.6816)" fill="black"/>
<rect y="813.182" width="67.9545" height="27" transform="rotate(-90 0 813.182)" fill="#5A9E24"/>
<rect y="745.227" width="67.9545" height="27" transform="rotate(-90 0 745.227)" fill="black"/>
<rect y="677.273" width="67.9545" height="27" transform="rotate(-90 0 677.273)" fill="#5A9E24"/>
<rect y="609.318" width="67.9545" height="27" transform="rotate(-90 0 609.318)" fill="black"/>
<rect x="1395" y="27" width="64.3182" height="27" transform="rotate(-180 1395 27)" fill="#E7410A"/>
<rect x="1330.68" y="27" width="64.3182" height="27" transform="rotate(-180 1330.68 27)" fill="#FFDD55"/>
<rect x="1266.36" y="27" width="64.3182" height="27" transform="rotate(-180 1266.36 27)" fill="#E7410A"/>
<rect x="1202.04" y="27" width="64.3182" height="27" transform="rotate(-180 1202.04 27)" fill="#FFDD55"/>
<rect x="880.455" y="27" width="64.3182" height="27" transform="rotate(-180 880.455 27)" fill="#E7410A"/>
<rect x="816.137" y="27" width="64.3182" height="27" transform="rotate(-180 816.137 27)" fill="#FFDD55"/>
<rect x="751.818" y="27" width="64.3182" height="27" transform="rotate(-180 751.818 27)" fill="#E7410A"/>
<rect x="687.5" y="27" width="64.3182" height="27" transform="rotate(-180 687.5 27)" fill="#FFDD55"/>
<rect x="623.182" y="27" width="64.3182" height="27" transform="rotate(-180 623.182 27)" fill="#E7410A"/>
<rect x="558.863" y="27" width="64.3182" height="27" transform="rotate(-180 558.863 27)" fill="#FFDD55"/>
<rect x="494.545" y="27" width="64.3182" height="27" transform="rotate(-180 494.545 27)" fill="#E7410A"/>
<rect x="430.227" y="27" width="64.3182" height="27" transform="rotate(-180 430.227 27)" fill="#FFDD55"/>
<rect x="365.908" y="27" width="64.3182" height="27" transform="rotate(-180 365.908 27)" fill="#E7410A"/>
<rect x="301.592" y="27" width="64.3182" height="27" transform="rotate(-180 301.592 27)" fill="#FFDD55"/>
<rect x="237.273" y="27" width="64.3182" height="27" transform="rotate(-180 237.273 27)" fill="#E7410A"/>
<rect x="172.955" y="27" width="64.3182" height="27" transform="rotate(-180 172.955 27)" fill="#FFDD55"/>
<rect x="108.637" y="27" width="64.3182" height="27" transform="rotate(-180 108.637 27)" fill="#E7410A"/>
<rect x="44.3184" y="27" width="64.3182" height="27" transform="rotate(-180 44.3184 27)" fill="#FFDD55"/>
<rect x="1137.73" y="27" width="64.3182" height="27" transform="rotate(-180 1137.73 27)" fill="#E7410A"/>
<rect x="1073.41" y="27" width="64.3182" height="27" transform="rotate(-180 1073.41 27)" fill="#FFDD55"/>
<rect x="1009.09" y="27" width="64.3182" height="27" transform="rotate(-180 1009.09 27)" fill="#E7410A"/>
<rect x="944.773" y="27" width="64.3182" height="27" transform="rotate(-180 944.773 27)" fill="#FFDD55"/>
<rect x="1395" y="180.332" width="64.3182" height="99.3333" transform="rotate(-180 1395 180.332)" fill="#E7410A"/>
<rect x="1330.68" y="180.332" width="64.3182" height="99.3333" transform="rotate(-180 1330.68 180.332)" fill="#FFDD55"/>
<rect x="1266.36" y="180.332" width="64.3182" height="99.3333" transform="rotate(-180 1266.36 180.332)" fill="#E7410A"/>
<rect x="1202.04" y="180.332" width="64.3182" height="99.3333" transform="rotate(-180 1202.04 180.332)" fill="#FFDD55"/>
<rect x="880.455" y="180.332" width="64.3182" height="99.3333" transform="rotate(-180 880.455 180.332)" fill="#E7410A"/>
<rect x="816.137" y="180.332" width="64.3182" height="99.3333" transform="rotate(-180 816.137 180.332)" fill="#FFDD55"/>
<rect x="751.818" y="180.332" width="64.3182" height="99.3333" transform="rotate(-180 751.818 180.332)" fill="#E7410A"/>
<rect x="687.5" y="180.332" width="64.3182" height="99.3333" transform="rotate(-180 687.5 180.332)" fill="#FFDD55"/>
<rect x="623.182" y="180.332" width="64.3182" height="99.3333" transform="rotate(-180 623.182 180.332)" fill="#E7410A"/>
<rect x="558.863" y="180.332" width="64.3182" height="99.3333" transform="rotate(-180 558.863 180.332)" fill="#FFDD55"/>
<rect x="494.545" y="180.332" width="64.3182" height="99.3333" transform="rotate(-180 494.545 180.332)" fill="#E7410A"/>
<rect x="430.227" y="180.332" width="64.3182" height="99.3333" transform="rotate(-180 430.227 180.332)" fill="#FFDD55"/>
<rect x="365.908" y="180.332" width="64.3182" height="99.3333" transform="rotate(-180 365.908 180.332)" fill="#E7410A"/>
<rect x="301.592" y="180.332" width="64.3182" height="99.3333" transform="rotate(-180 301.592 180.332)" fill="#FFDD55"/>
<rect x="237.273" y="180.332" width="64.3182" height="99.3333" transform="rotate(-180 237.273 180.332)" fill="#E7410A"/>
<rect x="172.955" y="180.332" width="64.3182" height="99.3333" transform="rotate(-180 172.955 180.332)" fill="#FFDD55"/>
<rect x="108.637" y="180.332" width="64.3182" height="99.3333" transform="rotate(-180 108.637 180.332)" fill="#E7410A"/>
<rect x="44.3184" y="180.332" width="64.3182" height="99.3333" transform="rotate(-180 44.3184 180.332)" fill="#FFDD55"/>
<rect x="1137.73" y="180.332" width="64.3182" height="99.3333" transform="rotate(-180 1137.73 180.332)" fill="#E7410A"/>
<rect x="1073.41" y="180.332" width="64.3182" height="99.3333" transform="rotate(-180 1073.41 180.332)" fill="#FFDD55"/>
<rect x="1009.09" y="180.332" width="64.3182" height="99.3333" transform="rotate(-180 1009.09 180.332)" fill="#E7410A"/>
<rect x="944.773" y="180.332" width="64.3182" height="99.3333" transform="rotate(-180 944.773 180.332)" fill="#FFDD55"/>
<rect x="1395" y="279.668" width="64.3182" height="99.3333" transform="rotate(-180 1395 279.668)" fill="#E7410A"/>
<rect x="1330.68" y="279.668" width="64.3182" height="99.3333" transform="rotate(-180 1330.68 279.668)" fill="#FFDD55"/>
<rect x="1266.36" y="279.668" width="64.3182" height="99.3333" transform="rotate(-180 1266.36 279.668)" fill="#E7410A"/>
<rect x="1202.04" y="279.668" width="64.3182" height="99.3333" transform="rotate(-180 1202.04 279.668)" fill="#FFDD55"/>
<rect x="880.455" y="279.668" width="64.3182" height="99.3333" transform="rotate(-180 880.455 279.668)" fill="#E7410A"/>
<rect x="816.137" y="279.668" width="64.3182" height="99.3333" transform="rotate(-180 816.137 279.668)" fill="#FFDD55"/>
<rect x="751.818" y="279.668" width="64.3182" height="99.3333" transform="rotate(-180 751.818 279.668)" fill="#E7410A"/>
<rect x="687.5" y="279.668" width="64.3182" height="99.3333" transform="rotate(-180 687.5 279.668)" fill="#FFDD55"/>
<rect x="623.182" y="279.668" width="64.3182" height="99.3333" transform="rotate(-180 623.182 279.668)" fill="#E7410A"/>
<rect x="558.863" y="279.668" width="64.3182" height="99.3333" transform="rotate(-180 558.863 279.668)" fill="#FFDD55"/>
<rect x="494.545" y="279.668" width="64.3182" height="99.3333" transform="rotate(-180 494.545 279.668)" fill="#E7410A"/>
<rect x="430.227" y="279.668" width="64.3182" height="99.3333" transform="rotate(-180 430.227 279.668)" fill="#FFDD55"/>
<rect x="365.908" y="279.668" width="64.3182" height="99.3333" transform="rotate(-180 365.908 279.668)" fill="#E7410A"/>
<rect x="301.592" y="279.668" width="64.3182" height="99.3333" transform="rotate(-180 301.592 279.668)" fill="#FFDD55"/>
<rect x="237.273" y="279.668" width="64.3182" height="99.3333" transform="rotate(-180 237.273 279.668)" fill="#E7410A"/>
<rect x="172.955" y="279.668" width="64.3182" height="99.3333" transform="rotate(-180 172.955 279.668)" fill="#FFDD55"/>
<rect x="108.637" y="279.668" width="64.3182" height="99.3333" transform="rotate(-180 108.637 279.668)" fill="#E7410A"/>
<rect x="44.3184" y="279.668" width="64.3182" height="99.3333" transform="rotate(-180 44.3184 279.668)" fill="#FFDD55"/>
<rect x="1137.73" y="279.668" width="64.3182" height="99.3333" transform="rotate(-180 1137.73 279.668)" fill="#E7410A"/>
<rect x="1073.41" y="279.668" width="64.3182" height="99.3333" transform="rotate(-180 1073.41 279.668)" fill="#FFDD55"/>
<rect x="1009.09" y="279.668" width="64.3182" height="99.3333" transform="rotate(-180 1009.09 279.668)" fill="#E7410A"/>
<rect x="944.773" y="279.668" width="64.3182" height="99.3333" transform="rotate(-180 944.773 279.668)" fill="#FFDD55"/>
<rect x="1395" y="379" width="64.3182" height="99.3333" transform="rotate(-180 1395 379)" fill="#E7410A"/>
<rect x="1330.68" y="379" width="64.3182" height="99.3333" transform="rotate(-180 1330.68 379)" fill="#FFDD55"/>
<rect x="1266.36" y="379" width="64.3182" height="99.3333" transform="rotate(-180 1266.36 379)" fill="#E7410A"/>
<rect x="1202.04" y="379" width="64.3182" height="99.3333" transform="rotate(-180 1202.04 379)" fill="#FFDD55"/>
<rect x="880.455" y="379" width="64.3182" height="99.3333" transform="rotate(-180 880.455 379)" fill="#E7410A"/>
<rect x="816.137" y="379" width="64.3182" height="99.3333" transform="rotate(-180 816.137 379)" fill="#FFDD55"/>
<rect x="751.818" y="379" width="64.3182" height="99.3333" transform="rotate(-180 751.818 379)" fill="#E7410A"/>
<rect x="687.5" y="379" width="64.3182" height="99.3333" transform="rotate(-180 687.5 379)" fill="#FFDD55"/>
<rect x="623.182" y="379" width="64.3182" height="99.3333" transform="rotate(-180 623.182 379)" fill="#E7410A"/>
<rect x="558.863" y="379" width="64.3182" height="99.3333" transform="rotate(-180 558.863 379)" fill="#FFDD55"/>
<rect x="494.545" y="379" width="64.3182" height="99.3333" transform="rotate(-180 494.545 379)" fill="#E7410A"/>
<rect x="430.227" y="379" width="64.3182" height="99.3333" transform="rotate(-180 430.227 379)" fill="#FFDD55"/>
<rect x="365.908" y="379" width="64.3182" height="99.3333" transform="rotate(-180 365.908 379)" fill="#E7410A"/>
<rect x="301.592" y="379" width="64.3182" height="99.3333" transform="rotate(-180 301.592 379)" fill="#FFDD55"/>
<rect x="237.273" y="379" width="64.3182" height="99.3333" transform="rotate(-180 237.273 379)" fill="#E7410A"/>
<rect x="172.955" y="379" width="64.3182" height="99.3333" transform="rotate(-180 172.955 379)" fill="#FFDD55"/>
<rect x="108.637" y="379" width="64.3182" height="99.3333" transform="rotate(-180 108.637 379)" fill="#E7410A"/>
<rect x="44.3184" y="379" width="64.3182" height="99.3333" transform="rotate(-180 44.3184 379)" fill="#FFDD55"/>
<rect x="1137.73" y="379" width="64.3182" height="99.3333" transform="rotate(-180 1137.73 379)" fill="#E7410A"/>
<rect x="1073.41" y="379" width="64.3182" height="99.3333" transform="rotate(-180 1073.41 379)" fill="#FFDD55"/>
<rect x="1009.09" y="379" width="64.3182" height="99.3333" transform="rotate(-180 1009.09 379)" fill="#E7410A"/>
<rect x="944.773" y="379" width="64.3182" height="99.3333" transform="rotate(-180 944.773 379)" fill="#FFDD55"/>
<rect x="1395" y="54" width="64.3182" height="27" transform="rotate(-180 1395 54)" fill="#E7410A"/>
<rect x="1330.68" y="54" width="64.3182" height="27" transform="rotate(-180 1330.68 54)" fill="#FFDD55"/>
<rect x="1266.36" y="54" width="64.3182" height="27" transform="rotate(-180 1266.36 54)" fill="#E7410A"/>
<rect x="1202.04" y="54" width="64.3182" height="27" transform="rotate(-180 1202.04 54)" fill="#FFDD55"/>
<rect x="880.455" y="54" width="64.3182" height="27" transform="rotate(-180 880.455 54)" fill="#E7410A"/>
<rect x="816.137" y="54" width="64.3182" height="27" transform="rotate(-180 816.137 54)" fill="#FFDD55"/>
<rect x="751.818" y="54" width="64.3182" height="27" transform="rotate(-180 751.818 54)" fill="#E7410A"/>
<rect x="687.5" y="54" width="64.3182" height="27" transform="rotate(-180 687.5 54)" fill="#FFDD55"/>
<rect x="623.182" y="54" width="64.3182" height="27" transform="rotate(-180 623.182 54)" fill="#E7410A"/>
<rect x="558.863" y="54" width="64.3182" height="27" transform="rotate(-180 558.863 54)" fill="#FFDD55"/>
<rect x="494.545" y="54" width="64.3182" height="27" transform="rotate(-180 494.545 54)" fill="#E7410A"/>
<rect x="430.227" y="54" width="64.3182" height="27" transform="rotate(-180 430.227 54)" fill="#FFDD55"/>
<rect x="365.908" y="54" width="64.3182" height="27" transform="rotate(-180 365.908 54)" fill="#E7410A"/>
<rect x="301.592" y="54" width="64.3182" height="27" transform="rotate(-180 301.592 54)" fill="#FFDD55"/>
<rect x="237.273" y="54" width="64.3182" height="27" transform="rotate(-180 237.273 54)" fill="#E7410A"/>
<rect x="172.955" y="54" width="64.3182" height="27" transform="rotate(-180 172.955 54)" fill="#FFDD55"/>
<rect x="108.637" y="54" width="64.3182" height="27" transform="rotate(-180 108.637 54)" fill="#E7410A"/>
<rect x="44.3184" y="54" width="64.3182" height="27" transform="rotate(-180 44.3184 54)" fill="#FFDD55"/>
<rect x="1137.73" y="54" width="64.3182" height="27" transform="rotate(-180 1137.73 54)" fill="#E7410A"/>
<rect x="1073.41" y="54" width="64.3182" height="27" transform="rotate(-180 1073.41 54)" fill="#FFDD55"/>
<rect x="1009.09" y="54" width="64.3182" height="27" transform="rotate(-180 1009.09 54)" fill="#E7410A"/>
<rect x="944.773" y="54" width="64.3182" height="27" transform="rotate(-180 944.773 54)" fill="#FFDD55"/>
<rect x="1395" y="81" width="64.3182" height="27" transform="rotate(-180 1395 81)" fill="#E7410A"/>
<rect x="1330.68" y="81" width="64.3182" height="27" transform="rotate(-180 1330.68 81)" fill="#FFDD55"/>
<rect x="1266.36" y="81" width="64.3182" height="27" transform="rotate(-180 1266.36 81)" fill="#E7410A"/>
<rect x="1202.04" y="81" width="64.3182" height="27" transform="rotate(-180 1202.04 81)" fill="#FFDD55"/>
<rect x="880.455" y="81" width="64.3182" height="27" transform="rotate(-180 880.455 81)" fill="#E7410A"/>
<rect x="816.137" y="81" width="64.3182" height="27" transform="rotate(-180 816.137 81)" fill="#FFDD55"/>
<rect x="751.818" y="81" width="64.3182" height="27" transform="rotate(-180 751.818 81)" fill="#E7410A"/>
<rect x="687.5" y="81" width="64.3182" height="27" transform="rotate(-180 687.5 81)" fill="#FFDD55"/>
<rect x="623.182" y="81" width="64.3182" height="27" transform="rotate(-180 623.182 81)" fill="#E7410A"/>
<rect x="558.863" y="81" width="64.3182" height="27" transform="rotate(-180 558.863 81)" fill="#FFDD55"/>
<rect x="494.545" y="81" width="64.3182" height="27" transform="rotate(-180 494.545 81)" fill="#E7410A"/>
<rect x="430.227" y="81" width="64.3182" height="27" transform="rotate(-180 430.227 81)" fill="#FFDD55"/>
<rect x="365.908" y="81" width="64.3182" height="27" transform="rotate(-180 365.908 81)" fill="#E7410A"/>
<rect x="301.592" y="81" width="64.3182" height="27" transform="rotate(-180 301.592 81)" fill="#FFDD55"/>
<rect x="237.273" y="81" width="64.3182" height="27" transform="rotate(-180 237.273 81)" fill="#E7410A"/>
<rect x="172.955" y="81" width="64.3182" height="27" transform="rotate(-180 172.955 81)" fill="#FFDD55"/>
<rect x="108.637" y="81" width="64.3182" height="27" transform="rotate(-180 108.637 81)" fill="#E7410A"/>
<rect x="44.3184" y="81" width="64.3182" height="27" transform="rotate(-180 44.3184 81)" fill="#FFDD55"/>
<rect x="1137.73" y="81" width="64.3182" height="27" transform="rotate(-180 1137.73 81)" fill="#E7410A"/>
<rect x="1073.41" y="81" width="64.3182" height="27" transform="rotate(-180 1073.41 81)" fill="#FFDD55"/>
<rect x="1009.09" y="81" width="64.3182" height="27" transform="rotate(-180 1009.09 81)" fill="#E7410A"/>
<rect x="944.773" y="81" width="64.3182" height="27" transform="rotate(-180 944.773 81)" fill="#FFDD55"/>
<rect x="1331" y="787" width="61.1818" height="408" transform="rotate(-180 1331 787)" fill="#565CEF"/>
<rect x="1269.82" y="787" width="61.1818" height="408" transform="rotate(-180 1269.82 787)" fill="#FFDD55"/>
<rect x="1208.64" y="787" width="61.1818" height="408" transform="rotate(-180 1208.64 787)" fill="#565CEF"/>
<rect x="1147.46" y="787" width="61.1818" height="408" transform="rotate(-180 1147.46 787)" fill="#FFDD55"/>
<rect x="841.545" y="787" width="61.1818" height="408" transform="rotate(-180 841.545 787)" fill="#565CEF"/>
<rect x="780.363" y="787" width="61.1818" height="408" transform="rotate(-180 780.363 787)" fill="#FFDD55"/>
<rect x="719.182" y="787" width="61.1818" height="408" transform="rotate(-180 719.182 787)" fill="#565CEF"/>
<rect x="658" y="787" width="61.1818" height="408" transform="rotate(-180 658 787)" fill="#FFDD55"/>
<rect x="596.818" y="787" width="61.1818" height="408" transform="rotate(-180 596.818 787)" fill="#565CEF"/>
<rect x="535.637" y="787" width="61.1818" height="408" transform="rotate(-180 535.637 787)" fill="#FFDD55"/>
<rect x="474.455" y="787" width="61.1818" height="408" transform="rotate(-180 474.455 787)" fill="#565CEF"/>
<rect x="413.273" y="787" width="61.1818" height="408" transform="rotate(-180 413.273 787)" fill="#FFDD55"/>
<rect x="352.092" y="787" width="61.1818" height="408" transform="rotate(-180 352.092 787)" fill="#565CEF"/>
<rect x="290.908" y="787" width="61.1818" height="408" transform="rotate(-180 290.908 787)" fill="#FFDD55"/>
<rect x="229.727" y="787" width="61.1818" height="408" transform="rotate(-180 229.727 787)" fill="#565CEF"/>
<rect x="168.545" y="787" width="61.1818" height="408" transform="rotate(-180 168.545 787)" fill="#FFDD55"/>
<rect x="107.363" y="787" width="61.1818" height="408" transform="rotate(-180 107.363 787)" fill="#565CEF"/>
<rect x="46.1816" y="787" width="61.1818" height="408" transform="rotate(-180 46.1816 787)" fill="#FFDD55"/>
<rect x="1086.27" y="787" width="61.1818" height="408" transform="rotate(-180 1086.27 787)" fill="#565CEF"/>
<rect x="1025.09" y="787" width="61.1818" height="408" transform="rotate(-180 1025.09 787)" fill="#FFDD55"/>
<rect x="963.908" y="787" width="61.1818" height="408" transform="rotate(-180 963.908 787)" fill="#565CEF"/>
<rect x="902.727" y="787" width="61.1818" height="408" transform="rotate(-180 902.727 787)" fill="#FFDD55"/>
<rect x="1394.83" y="848" width="67" height="27.172" transform="rotate(-90 1394.83 848)" fill="black"/>
<rect x="1394.83" y="513" width="67" height="27.172" transform="rotate(-90 1394.83 513)" fill="#EDEF7C"/>
<rect x="1394.83" y="446" width="67" height="27.172" transform="rotate(-90 1394.83 446)" fill="black"/>
<rect x="1394.83" y="379" width="67" height="27.172" transform="rotate(-90 1394.83 379)" fill="#EDEF7C"/>
<rect x="1394.83" y="312" width="67" height="27.172" transform="rotate(-90 1394.83 312)" fill="black"/>
<rect x="1394.83" y="245" width="67" height="27.172" transform="rotate(-90 1394.83 245)" fill="#EDEF7C"/>
<rect x="1394.83" y="178" width="67" height="27.172" transform="rotate(-90 1394.83 178)" fill="black"/>
<rect x="1394.83" y="111" width="67" height="27.172" transform="rotate(-90 1394.83 111)" fill="#EDEF7C"/>
<rect x="1394.83" y="44" width="67" height="27.172" transform="rotate(-90 1394.83 44)" fill="black"/>
<rect x="1394.83" y="781" width="67" height="27.172" transform="rotate(-90 1394.83 781)" fill="#EDEF7C"/>
<rect x="1394.83" y="714" width="67" height="27.172" transform="rotate(-90 1394.83 714)" fill="black"/>
<rect x="1394.83" y="647" width="67" height="27.172" transform="rotate(-90 1394.83 647)" fill="#EDEF7C"/>
<rect x="1394.83" y="580" width="67" height="27.172" transform="rotate(-90 1394.83 580)" fill="black"/>
<rect y="541.363" width="67.9545" height="27.172" transform="rotate(-90 0 541.363)" fill="#5A9E24"/>
<rect y="473.408" width="67.9545" height="27.172" transform="rotate(-90 0 473.408)" fill="black"/>
<rect y="405.455" width="67.9545" height="27.172" transform="rotate(-90 0 405.455)" fill="#5A9E24"/>
<rect y="337.5" width="67.9545" height="27.172" transform="rotate(-90 0 337.5)" fill="black"/>
<rect y="269.545" width="67.9545" height="27.172" transform="rotate(-90 0 269.545)" fill="#5A9E24"/>
<rect y="201.592" width="67.9545" height="27.172" transform="rotate(-90 0 201.592)" fill="black"/>
<rect y="133.637" width="67.9545" height="27.172" transform="rotate(-90 0 133.637)" fill="#5A9E24"/>
<rect y="65.6816" width="67.9545" height="27.172" transform="rotate(-90 0 65.6816)" fill="black"/>
<rect y="813.182" width="67.9545" height="27.172" transform="rotate(-90 0 813.182)" fill="#5A9E24"/>
<rect y="745.227" width="67.9545" height="27.172" transform="rotate(-90 0 745.227)" fill="black"/>
<rect y="677.273" width="67.9545" height="27.172" transform="rotate(-90 0 677.273)" fill="#5A9E24"/>
<rect y="609.318" width="67.9545" height="27.172" transform="rotate(-90 0 609.318)" fill="black"/>
<rect x="27.1719" y="541.363" width="67.9545" height="27.172" transform="rotate(-90 27.1719 541.363)" fill="#5A9E24"/>
<rect x="27.1719" y="473.408" width="67.9545" height="27.172" transform="rotate(-90 27.1719 473.408)" fill="black"/>
<rect x="27.1719" y="405.455" width="67.9545" height="27.172" transform="rotate(-90 27.1719 405.455)" fill="#5A9E24"/>
<rect x="27.1719" y="337.5" width="67.9545" height="27.172" transform="rotate(-90 27.1719 337.5)" fill="black"/>
<rect x="27.1719" y="269.545" width="67.9545" height="27.172" transform="rotate(-90 27.1719 269.545)" fill="#5A9E24"/>
<rect x="27.1719" y="201.592" width="67.9545" height="27.172" transform="rotate(-90 27.1719 201.592)" fill="black"/>
<rect x="27.1719" y="133.637" width="67.9545" height="27.172" transform="rotate(-90 27.1719 133.637)" fill="#5A9E24"/>
<rect x="27.1719" y="65.6816" width="67.9545" height="27.172" transform="rotate(-90 27.1719 65.6816)" fill="black"/>
<rect x="27.1719" y="813.182" width="67.9545" height="27.172" transform="rotate(-90 27.1719 813.182)" fill="#5A9E24"/>
<rect x="27.1719" y="745.227" width="67.9545" height="27.172" transform="rotate(-90 27.1719 745.227)" fill="black"/>
<rect x="27.1719" y="677.273" width="67.9545" height="27.172" transform="rotate(-90 27.1719 677.273)" fill="#5A9E24"/>
<rect x="27.1719" y="609.318" width="67.9545" height="27.172" transform="rotate(-90 27.1719 609.318)" fill="black"/>
<rect x="54.3438" y="541.363" width="67.9545" height="27.172" transform="rotate(-90 54.3438 541.363)" fill="#5A9E24"/>
<rect x="54.3438" y="473.408" width="67.9545" height="27.172" transform="rotate(-90 54.3438 473.408)" fill="black"/>
<rect x="54.3438" y="405.455" width="67.9545" height="27.172" transform="rotate(-90 54.3438 405.455)" fill="#5A9E24"/>
<rect x="54.3438" y="337.5" width="67.9545" height="27.172" transform="rotate(-90 54.3438 337.5)" fill="black"/>
<rect x="54.3438" y="269.545" width="67.9545" height="27.172" transform="rotate(-90 54.3438 269.545)" fill="#5A9E24"/>
<rect x="54.3438" y="201.592" width="67.9545" height="27.172" transform="rotate(-90 54.3438 201.592)" fill="black"/>
<rect x="54.3438" y="133.637" width="67.9545" height="27.172" transform="rotate(-90 54.3438 133.637)" fill="#5A9E24"/>
<rect x="54.3438" y="65.6816" width="67.9545" height="27.172" transform="rotate(-90 54.3438 65.6816)" fill="black"/>
<rect x="54.3438" y="813.182" width="67.9545" height="27.172" transform="rotate(-90 54.3438 813.182)" fill="#5A9E24"/>
<rect x="54.3438" y="745.227" width="67.9545" height="27.172" transform="rotate(-90 54.3438 745.227)" fill="black"/>
<rect x="54.3438" y="677.273" width="67.9545" height="27.172" transform="rotate(-90 54.3438 677.273)" fill="#5A9E24"/>
<rect x="54.3438" y="609.318" width="67.9545" height="27.172" transform="rotate(-90 54.3438 609.318)" fill="black"/>
<rect x="89" y="541.363" width="67.9545" height="27" transform="rotate(-90 89 541.363)" fill="#5A9E24"/>
<rect x="89" y="473.408" width="67.9545" height="27" transform="rotate(-90 89 473.408)" fill="black"/>
<rect x="89" y="405.455" width="67.9545" height="27" transform="rotate(-90 89 405.455)" fill="#5A9E24"/>
<rect x="89" y="337.5" width="67.9545" height="27" transform="rotate(-90 89 337.5)" fill="black"/>
<rect x="89" y="269.545" width="67.9545" height="27" transform="rotate(-90 89 269.545)" fill="#5A9E24"/>
<rect x="89" y="201.592" width="67.9545" height="27" transform="rotate(-90 89 201.592)" fill="black"/>
<rect x="89" y="133.637" width="67.9545" height="27" transform="rotate(-90 89 133.637)" fill="#5A9E24"/>
<rect x="89" y="65.6816" width="67.9545" height="27" transform="rotate(-90 89 65.6816)" fill="black"/>
<rect x="89" y="813.182" width="67.9545" height="27" transform="rotate(-90 89 813.182)" fill="#5A9E24"/>
<rect x="89" y="745.227" width="67.9545" height="27" transform="rotate(-90 89 745.227)" fill="black"/>
<rect x="89" y="677.273" width="67.9545" height="27" transform="rotate(-90 89 677.273)" fill="#5A9E24"/>
<rect x="89" y="609.318" width="67.9545" height="27" transform="rotate(-90 89 609.318)" fill="black"/>
<rect x="36" y="541.363" width="67.9545" height="73" transform="rotate(-90 36 541.363)" fill="#5A9E24"/>
<rect x="36" y="473.408" width="67.9545" height="73" transform="rotate(-90 36 473.408)" fill="black"/>
<rect x="36" y="405.455" width="67.9545" height="73" transform="rotate(-90 36 405.455)" fill="#5A9E24"/>
<rect x="36" y="337.5" width="67.9545" height="73" transform="rotate(-90 36 337.5)" fill="black"/>
<rect x="36" y="269.545" width="67.9545" height="73" transform="rotate(-90 36 269.545)" fill="#5A9E24"/>
<rect x="36" y="201.592" width="67.9545" height="73" transform="rotate(-90 36 201.592)" fill="black"/>
<rect x="36" y="133.637" width="67.9545" height="73" transform="rotate(-90 36 133.637)" fill="#5A9E24"/>
<rect x="36" y="65.6816" width="67.9545" height="73" transform="rotate(-90 36 65.6816)" fill="black"/>
<rect x="36" y="813.182" width="67.9545" height="73" transform="rotate(-90 36 813.182)" fill="#5A9E24"/>
<rect x="36" y="745.227" width="67.9545" height="73" transform="rotate(-90 36 745.227)" fill="black"/>
<rect x="36" y="677.273" width="67.9545" height="73" transform="rotate(-90 36 677.273)" fill="#5A9E24"/>
<rect x="36" y="609.318" width="67.9545" height="73" transform="rotate(-90 36 609.318)" fill="black"/>
<rect x="1331" y="848" width="67" height="28" transform="rotate(-90 1331 848)" fill="black"/>
<rect x="1331" y="513" width="67" height="28" transform="rotate(-90 1331 513)" fill="#EDEF7C"/>
<rect x="1331" y="446" width="67" height="28" transform="rotate(-90 1331 446)" fill="black"/>
<rect x="1331" y="379" width="67" height="28" transform="rotate(-90 1331 379)" fill="#EDEF7C"/>
<rect x="1331" y="312" width="67" height="28" transform="rotate(-90 1331 312)" fill="black"/>
<rect x="1331" y="245" width="67" height="28" transform="rotate(-90 1331 245)" fill="#EDEF7C"/>
<rect x="1331" y="178" width="67" height="28" transform="rotate(-90 1331 178)" fill="black"/>
<rect x="1331" y="111" width="67" height="28" transform="rotate(-90 1331 111)" fill="#EDEF7C"/>
<rect x="1331" y="44" width="67" height="28" transform="rotate(-90 1331 44)" fill="black"/>
<rect x="1331" y="781" width="67" height="28" transform="rotate(-90 1331 781)" fill="#EDEF7C"/>
<rect x="1331" y="714" width="67" height="28" transform="rotate(-90 1331 714)" fill="black"/>
<rect x="1331" y="647" width="67" height="28" transform="rotate(-90 1331 647)" fill="#EDEF7C"/>
<rect x="1331" y="580" width="67" height="28" transform="rotate(-90 1331 580)" fill="black"/>
<rect x="1359" y="848" width="67" height="27" transform="rotate(-90 1359 848)" fill="black"/>
<rect x="1359" y="513" width="67" height="27" transform="rotate(-90 1359 513)" fill="#EDEF7C"/>
<rect x="1359" y="446" width="67" height="27" transform="rotate(-90 1359 446)" fill="black"/>
<rect x="1359" y="379" width="67" height="27" transform="rotate(-90 1359 379)" fill="#EDEF7C"/>
<rect x="1359" y="312" width="67" height="27" transform="rotate(-90 1359 312)" fill="black"/>
<rect x="1359" y="245" width="67" height="27" transform="rotate(-90 1359 245)" fill="#EDEF7C"/>
<rect x="1359" y="178" width="67" height="27" transform="rotate(-90 1359 178)" fill="black"/>
<rect x="1359" y="111" width="67" height="27" transform="rotate(-90 1359 111)" fill="#EDEF7C"/>
<rect x="1359" y="44" width="67" height="27" transform="rotate(-90 1359 44)" fill="black"/>
<rect x="1359" y="781" width="67" height="27" transform="rotate(-90 1359 781)" fill="#EDEF7C"/>
<rect x="1359" y="714" width="67" height="27" transform="rotate(-90 1359 714)" fill="black"/>
<rect x="1359" y="647" width="67" height="27" transform="rotate(-90 1359 647)" fill="#EDEF7C"/>
<rect x="1359" y="580" width="67" height="27" transform="rotate(-90 1359 580)" fill="black"/>
<rect x="1386" y="848" width="67" height="27" transform="rotate(-90 1386 848)" fill="black"/>
<rect x="1386" y="513" width="67" height="27" transform="rotate(-90 1386 513)" fill="#EDEF7C"/>
<rect x="1386" y="446" width="67" height="27" transform="rotate(-90 1386 446)" fill="black"/>
<rect x="1386" y="379" width="67" height="27" transform="rotate(-90 1386 379)" fill="#EDEF7C"/>
<rect x="1386" y="312" width="67" height="27" transform="rotate(-90 1386 312)" fill="black"/>
<rect x="1386" y="245" width="67" height="27" transform="rotate(-90 1386 245)" fill="#EDEF7C"/>
<rect x="1386" y="178" width="67" height="27" transform="rotate(-90 1386 178)" fill="black"/>
<rect x="1386" y="111" width="67" height="27" transform="rotate(-90 1386 111)" fill="#EDEF7C"/>
<rect x="1386" y="44" width="67" height="27" transform="rotate(-90 1386 44)" fill="black"/>
<rect x="1386" y="781" width="67" height="27" transform="rotate(-90 1386 781)" fill="#EDEF7C"/>
<rect x="1386" y="714" width="67" height="27" transform="rotate(-90 1386 714)" fill="black"/>
<rect x="1386" y="647" width="67" height="27" transform="rotate(-90 1386 647)" fill="#EDEF7C"/>
<rect x="1386" y="580" width="67" height="27" transform="rotate(-90 1386 580)" fill="black"/>
<rect x="1413" y="848" width="67" height="27" transform="rotate(-90 1413 848)" fill="black"/>
<rect x="1413" y="513" width="67" height="27" transform="rotate(-90 1413 513)" fill="#EDEF7C"/>
<rect x="1413" y="446" width="67" height="27" transform="rotate(-90 1413 446)" fill="black"/>
<rect x="1413" y="379" width="67" height="27" transform="rotate(-90 1413 379)" fill="#EDEF7C"/>
<rect x="1413" y="312" width="67" height="27" transform="rotate(-90 1413 312)" fill="black"/>
<rect x="1413" y="245" width="67" height="27" transform="rotate(-90 1413 245)" fill="#EDEF7C"/>
<rect x="1413" y="178" width="67" height="27" transform="rotate(-90 1413 178)" fill="black"/>
<rect x="1413" y="111" width="67" height="27" transform="rotate(-90 1413 111)" fill="#EDEF7C"/>
<rect x="1413" y="44" width="67" height="27" transform="rotate(-90 1413 44)" fill="black"/>
<rect x="1413" y="781" width="67" height="27" transform="rotate(-90 1413 781)" fill="#EDEF7C"/>
<rect x="1413" y="714" width="67" height="27" transform="rotate(-90 1413 714)" fill="black"/>
<rect x="1413" y="647" width="67" height="27" transform="rotate(-90 1413 647)" fill="#EDEF7C"/>
<rect x="1413" y="580" width="67" height="27" transform="rotate(-90 1413 580)" fill="black"/>
</g>
<defs>
<clipPath id="clip0_479_407">
<rect width="1440" height="787" fill="white"/>
</clipPath>
</defs>
</svg>
