<svg width="796" height="1443" viewBox="0 0 796 1443" fill="none" xmlns="http://www.w3.org/2000/svg">
<g clip-path="url(#clip0_316_3458)">
<rect width="1440" height="793" transform="translate(0.402344 1440.89) rotate(-89.9126)" fill="white"/>
<rect x="-100" y="509" width="23.0909" height="1028" transform="rotate(-90 -100 509)" fill="#5A9E24"/>
<rect x="-100" y="485.908" width="23.0909" height="1028" transform="rotate(-90 -100 485.908)" fill="black"/>
<rect x="-100" y="462.818" width="23.0909" height="1028" transform="rotate(-90 -100 462.818)" fill="#5A9E24"/>
<rect x="-100" y="439.727" width="23.0909" height="1028" transform="rotate(-90 -100 439.727)" fill="black"/>
<rect x="-100" y="324.273" width="23.0909" height="1028" transform="rotate(-90 -100 324.273)" fill="#5A9E24"/>
<rect x="-100" y="301.182" width="23.0909" height="1028" transform="rotate(-90 -100 301.182)" fill="black"/>
<rect x="-100" y="278.092" width="23.0909" height="1028" transform="rotate(-90 -100 278.092)" fill="#5A9E24"/>
<rect x="-100" y="255" width="23.0909" height="1028" transform="rotate(-90 -100 255)" fill="black"/>
<rect x="-100" y="231.908" width="23.0909" height="1028" transform="rotate(-90 -100 231.908)" fill="#5A9E24"/>
<rect x="-100" y="208.818" width="23.0909" height="1028" transform="rotate(-90 -100 208.818)" fill="black"/>
<rect x="-100" y="185.727" width="23.0909" height="1028" transform="rotate(-90 -100 185.727)" fill="#5A9E24"/>
<rect x="-100" y="162.637" width="23.0909" height="1028" transform="rotate(-90 -100 162.637)" fill="black"/>
<rect x="-100" y="139.545" width="23.0909" height="1028" transform="rotate(-90 -100 139.545)" fill="#5A9E24"/>
<rect x="-100" y="116.455" width="23.0909" height="1028" transform="rotate(-90 -100 116.455)" fill="black"/>
<rect x="-100" y="93.3652" width="23.0909" height="1028" transform="rotate(-90 -100 93.3652)" fill="#5A9E24"/>
<rect x="-100" y="70.2734" width="23.0909" height="1028" transform="rotate(-90 -100 70.2734)" fill="black"/>
<rect x="-100" y="47.1816" width="23.0909" height="1028" transform="rotate(-90 -100 47.1816)" fill="#5A9E24"/>
<rect x="-100" y="24.0918" width="23.0909" height="1028" transform="rotate(-90 -100 24.0918)" fill="black"/>
<rect x="-100" y="416.637" width="23.0909" height="1028" transform="rotate(-90 -100 416.637)" fill="#5A9E24"/>
<rect x="-100" y="393.545" width="23.0909" height="1028" transform="rotate(-90 -100 393.545)" fill="black"/>
<rect x="-100" y="370.455" width="23.0909" height="1028" transform="rotate(-90 -100 370.455)" fill="#5A9E24"/>
<rect x="-100" y="347.365" width="23.0909" height="1028" transform="rotate(-90 -100 347.365)" fill="black"/>
<rect x="-116" y="1017" width="23.0909" height="1028" transform="rotate(-90 -116 1017)" fill="#5A9E24"/>
<rect x="-116" y="993.908" width="23.0909" height="1028" transform="rotate(-90 -116 993.908)" fill="black"/>
<rect x="-116" y="970.818" width="23.0909" height="1028" transform="rotate(-90 -116 970.818)" fill="#5A9E24"/>
<rect x="-116" y="947.727" width="23.0909" height="1028" transform="rotate(-90 -116 947.727)" fill="black"/>
<rect x="-116" y="832.273" width="23.0909" height="1028" transform="rotate(-90 -116 832.273)" fill="#5A9E24"/>
<rect x="-116" y="809.182" width="23.0909" height="1028" transform="rotate(-90 -116 809.182)" fill="black"/>
<rect x="-116" y="786.092" width="23.0909" height="1028" transform="rotate(-90 -116 786.092)" fill="#5A9E24"/>
<rect x="-116" y="763" width="23.0909" height="1028" transform="rotate(-90 -116 763)" fill="black"/>
<rect x="-116" y="739.908" width="23.0909" height="1028" transform="rotate(-90 -116 739.908)" fill="#5A9E24"/>
<rect x="-116" y="716.818" width="23.0909" height="1028" transform="rotate(-90 -116 716.818)" fill="black"/>
<rect x="-116" y="693.727" width="23.0909" height="1028" transform="rotate(-90 -116 693.727)" fill="#5A9E24"/>
<rect x="-116" y="670.637" width="23.0909" height="1028" transform="rotate(-90 -116 670.637)" fill="black"/>
<rect x="-116" y="647.545" width="23.0909" height="1028" transform="rotate(-90 -116 647.545)" fill="#5A9E24"/>
<rect x="-116" y="624.455" width="23.0909" height="1028" transform="rotate(-90 -116 624.455)" fill="black"/>
<rect x="-116" y="601.365" width="23.0909" height="1028" transform="rotate(-90 -116 601.365)" fill="#5A9E24"/>
<rect x="-116" y="578.273" width="23.0909" height="1028" transform="rotate(-90 -116 578.273)" fill="black"/>
<rect x="-116" y="555.182" width="23.0909" height="1028" transform="rotate(-90 -116 555.182)" fill="#5A9E24"/>
<rect x="-116" y="532.092" width="23.0909" height="1028" transform="rotate(-90 -116 532.092)" fill="black"/>
<rect x="-116" y="924.635" width="23.0909" height="1028" transform="rotate(-90 -116 924.635)" fill="#5A9E24"/>
<rect x="-116" y="901.545" width="23.0909" height="1028" transform="rotate(-90 -116 901.545)" fill="black"/>
<rect x="-116" y="878.455" width="23.0909" height="1028" transform="rotate(-90 -116 878.455)" fill="#5A9E24"/>
<rect x="-116" y="855.365" width="23.0909" height="1028" transform="rotate(-90 -116 855.365)" fill="black"/>
<rect x="-214" y="1455.73" width="23.0909" height="1028" transform="rotate(-90 -214 1455.73)" fill="black"/>
<rect x="-214" y="1340.27" width="23.0909" height="1028" transform="rotate(-90 -214 1340.27)" fill="#5A9E24"/>
<rect x="-214" y="1317.18" width="23.0909" height="1028" transform="rotate(-90 -214 1317.18)" fill="black"/>
<rect x="-214" y="1294.09" width="23.0909" height="1028" transform="rotate(-90 -214 1294.09)" fill="#5A9E24"/>
<rect x="-214" y="1271" width="23.0909" height="1028" transform="rotate(-90 -214 1271)" fill="black"/>
<rect x="-214" y="1247.91" width="23.0909" height="1028" transform="rotate(-90 -214 1247.91)" fill="#5A9E24"/>
<rect x="-214" y="1224.82" width="23.0909" height="1028" transform="rotate(-90 -214 1224.82)" fill="black"/>
<rect x="-214" y="1201.73" width="23.0909" height="1028" transform="rotate(-90 -214 1201.73)" fill="#5A9E24"/>
<rect x="-214" y="1178.64" width="23.0909" height="1028" transform="rotate(-90 -214 1178.64)" fill="black"/>
<rect x="-214" y="1155.54" width="23.0909" height="1028" transform="rotate(-90 -214 1155.54)" fill="#5A9E24"/>
<rect x="-214" y="1132.46" width="23.0909" height="1028" transform="rotate(-90 -214 1132.46)" fill="black"/>
<rect x="-214" y="1109.37" width="23.0909" height="1028" transform="rotate(-90 -214 1109.37)" fill="#5A9E24"/>
<rect x="-214" y="1086.27" width="23.0909" height="1028" transform="rotate(-90 -214 1086.27)" fill="black"/>
<rect x="-214" y="1063.18" width="23.0909" height="1028" transform="rotate(-90 -214 1063.18)" fill="#5A9E24"/>
<rect x="-214" y="1040.09" width="23.0909" height="1028" transform="rotate(-90 -214 1040.09)" fill="black"/>
<rect x="-214" y="1432.64" width="23.0909" height="1028" transform="rotate(-90 -214 1432.64)" fill="#5A9E24"/>
<rect x="-214" y="1409.54" width="23.0909" height="1028" transform="rotate(-90 -214 1409.54)" fill="black"/>
<rect x="-214" y="1386.46" width="23.0909" height="1028" transform="rotate(-90 -214 1386.46)" fill="#5A9E24"/>
<rect x="-214" y="1363.37" width="23.0909" height="1028" transform="rotate(-90 -214 1363.37)" fill="black"/>
</g>
<defs>
<clipPath id="clip0_316_3458">
<rect width="1440" height="793" fill="white" transform="translate(0.402344 1440.89) rotate(-89.9126)"/>
</clipPath>
</defs>
</svg>
