<svg width="60" height="60" viewBox="0 0 60 60" fill="none" xmlns="http://www.w3.org/2000/svg">
<g clip-path="url(#clip0_312_3490)">
<path fill-rule="evenodd" clip-rule="evenodd" d="M8.6347e-07 29.9989C0.000193247 24.8222 1.33992 19.7337 3.8889 15.228C6.43789 10.7224 10.1094 6.95306 14.5464 4.28645C18.9834 1.61984 24.035 0.146752 29.2099 0.0104091C34.3847 -0.125933 39.5068 1.07911 44.0781 3.50838C48.6494 5.93764 52.5143 9.50845 55.297 13.8736C58.0797 18.2387 59.6855 23.2497 59.9583 28.4192C60.2311 33.5886 59.1616 38.7408 56.8537 43.3745C54.5459 48.0083 51.0782 51.966 46.788 54.8629L19.628 16.8389C19.3819 16.494 19.0327 16.2362 18.6306 16.1026C18.2285 15.9691 17.7944 15.9666 17.3909 16.0956C16.9874 16.2246 16.6352 16.4785 16.3852 16.8206C16.1353 17.1626 16.0004 17.5752 16 17.9989V47.9989H20V24.2389L43.32 56.8869C38.7456 59.1536 33.6685 60.2154 28.5691 59.9719C23.4697 59.7284 18.5168 58.1876 14.1792 55.4954C9.84165 52.8031 6.26286 49.0484 3.78162 44.5868C1.30038 40.1251 -0.00122385 35.1041 8.6347e-07 29.9989ZM40 39.9989V15.9989H44V39.9989H40Z" fill="black"/>
</g>
<defs>
<clipPath id="clip0_312_3490">
<rect width="60" height="60" fill="white"/>
</clipPath>
</defs>
</svg>
