<svg width="1440" height="784" viewBox="0 0 1440 784" fill="none" xmlns="http://www.w3.org/2000/svg">
<g clip-path="url(#clip0_293_3458)">
<rect width="1440" height="784" fill="#BEC1FE" fill-opacity="0.87"/>
<rect x="1357" y="816" width="67.5" height="83" transform="rotate(-90 1357 816)" fill="#5A9E24"/>
<rect x="1357" y="748.5" width="67.5" height="83" transform="rotate(-90 1357 748.5)" fill="black"/>
<rect x="1357" y="681" width="67.5" height="83" transform="rotate(-90 1357 681)" fill="#5A9E24"/>
<rect x="1357" y="613.5" width="67.5" height="83" transform="rotate(-90 1357 613.5)" fill="black"/>
<rect x="1357" y="546" width="67.5" height="83" transform="rotate(-90 1357 546)" fill="#5A9E24"/>
<rect x="1357" y="478.5" width="67.5" height="83" transform="rotate(-90 1357 478.5)" fill="black"/>
<rect x="1357" y="411" width="67.5" height="83" transform="rotate(-90 1357 411)" fill="#5A9E24"/>
<rect x="1357" y="343.5" width="67.5" height="83" transform="rotate(-90 1357 343.5)" fill="black"/>
<rect x="1357" y="276" width="67.5" height="83" transform="rotate(-90 1357 276)" fill="#5A9E24"/>
<rect x="1357" y="208.5" width="67.5" height="83" transform="rotate(-90 1357 208.5)" fill="black"/>
<rect x="1357" y="141" width="67.5" height="83" transform="rotate(-90 1357 141)" fill="#5A9E24"/>
<rect x="1357" y="73.5" width="67.5" height="83" transform="rotate(-90 1357 73.5)" fill="black"/>
<rect y="815" width="67" height="66" transform="rotate(-90 0 815)" fill="#3D1A14"/>
<rect y="748" width="67" height="66" transform="rotate(-90 0 748)" fill="#FFDD55"/>
<rect y="681" width="67" height="66" transform="rotate(-90 0 681)" fill="#3D1A14"/>
<rect y="614" width="67" height="66" transform="rotate(-90 0 614)" fill="#FFDD55"/>
<rect y="547" width="67" height="66" transform="rotate(-90 0 547)" fill="#3D1A14"/>
<rect y="480" width="67" height="66" transform="rotate(-90 0 480)" fill="#FFDD55"/>
<rect y="413" width="67" height="66" transform="rotate(-90 0 413)" fill="#3D1A14"/>
<rect y="346" width="67" height="66" transform="rotate(-90 0 346)" fill="#FFDD55"/>
<rect y="279" width="67" height="66" transform="rotate(-90 0 279)" fill="#3D1A14"/>
<rect y="212" width="67" height="66" transform="rotate(-90 0 212)" fill="#FFDD55"/>
<rect y="145" width="67" height="66" transform="rotate(-90 0 145)" fill="#3D1A14"/>
<rect y="78" width="67" height="66" transform="rotate(-90 0 78)" fill="#FFDD55"/>
<rect x="1440" y="786" width="67" height="53" transform="rotate(-180 1440 786)" fill="#000341"/>
<rect x="1373" y="786" width="67" height="53" transform="rotate(-180 1373 786)" fill="#DF80AB"/>
<rect x="1306" y="786" width="67" height="53" transform="rotate(-180 1306 786)" fill="#000341"/>
<rect x="1239" y="786" width="67" height="53" transform="rotate(-180 1239 786)" fill="#DF80AB"/>
<rect x="904" y="786" width="67" height="53" transform="rotate(-180 904 786)" fill="#000341"/>
<rect x="837" y="786" width="67" height="53" transform="rotate(-180 837 786)" fill="#DF80AB"/>
<rect x="770" y="786" width="67" height="53" transform="rotate(-180 770 786)" fill="#000341"/>
<rect x="703" y="786" width="67" height="53" transform="rotate(-180 703 786)" fill="#DF80AB"/>
<rect x="636" y="786" width="67" height="53" transform="rotate(-180 636 786)" fill="#000341"/>
<rect x="569" y="786" width="67" height="53" transform="rotate(-180 569 786)" fill="#DF80AB"/>
<rect x="502" y="786" width="67" height="53" transform="rotate(-180 502 786)" fill="#000341"/>
<rect x="435" y="786" width="67" height="53" transform="rotate(-180 435 786)" fill="#DF80AB"/>
<rect x="368" y="786" width="67" height="53" transform="rotate(-180 368 786)" fill="#000341"/>
<rect x="301" y="786" width="67" height="53" transform="rotate(-180 301 786)" fill="#DF80AB"/>
<rect x="234" y="786" width="67" height="53" transform="rotate(-180 234 786)" fill="#000341"/>
<rect x="167" y="786" width="67" height="53" transform="rotate(-180 167 786)" fill="#DF80AB"/>
<rect x="100" y="786" width="67" height="53" transform="rotate(-180 100 786)" fill="#000341"/>
<rect x="36" y="786" width="70" height="53" transform="rotate(-180 36 786)" fill="#DF80AB"/>
<rect x="1172" y="786" width="67" height="53" transform="rotate(-180 1172 786)" fill="#000341"/>
<rect x="1105" y="786" width="67" height="53" transform="rotate(-180 1105 786)" fill="#DF80AB"/>
<rect x="1038" y="786" width="67" height="53" transform="rotate(-180 1038 786)" fill="#000341"/>
<rect x="971" y="786" width="67" height="53" transform="rotate(-180 971 786)" fill="#DF80AB"/>
<rect x="1473" y="78" width="67" height="83" transform="rotate(-180 1473 78)" fill="#5A9E24"/>
<rect x="1440" y="78" width="101" height="83" transform="rotate(-180 1440 78)" fill="#E7410A"/>
<rect x="1339" y="78" width="67" height="83" transform="rotate(-180 1339 78)" fill="#5A9E24"/>
<rect x="1272" y="78" width="67" height="83" transform="rotate(-180 1272 78)" fill="#E7410A"/>
<rect x="937" y="78" width="67" height="83" transform="rotate(-180 937 78)" fill="#5A9E24"/>
<rect x="870" y="78" width="67" height="83" transform="rotate(-180 870 78)" fill="#E7410A"/>
<rect x="803" y="78" width="67" height="83" transform="rotate(-180 803 78)" fill="#5A9E24"/>
<rect x="736" y="78" width="67" height="83" transform="rotate(-180 736 78)" fill="#E7410A"/>
<rect x="669" y="78" width="67" height="83" transform="rotate(-180 669 78)" fill="#5A9E24"/>
<rect x="602" y="78" width="67" height="83" transform="rotate(-180 602 78)" fill="#E7410A"/>
<rect x="535" y="78" width="67" height="83" transform="rotate(-180 535 78)" fill="#5A9E24"/>
<rect x="468" y="78" width="67" height="83" transform="rotate(-180 468 78)" fill="#E7410A"/>
<rect x="401" y="78" width="67" height="83" transform="rotate(-180 401 78)" fill="#5A9E24"/>
<rect x="334" y="78" width="67" height="83" transform="rotate(-180 334 78)" fill="#E7410A"/>
<rect x="267" y="78" width="67" height="83" transform="rotate(-180 267 78)" fill="#5A9E24"/>
<rect x="200" y="78" width="67" height="83" transform="rotate(-180 200 78)" fill="#E7410A"/>
<rect x="133" y="78" width="67" height="83" transform="rotate(-180 133 78)" fill="#5A9E24"/>
<rect x="69" y="78" width="70" height="83" transform="rotate(-180 69 78)" fill="#E7410A"/>
<rect x="1205" y="78" width="67" height="83" transform="rotate(-180 1205 78)" fill="#5A9E24"/>
<rect x="1138" y="78" width="67" height="83" transform="rotate(-180 1138 78)" fill="#E7410A"/>
<rect x="1071" y="78" width="67" height="83" transform="rotate(-180 1071 78)" fill="#5A9E24"/>
<rect x="1004" y="78" width="67" height="83" transform="rotate(-180 1004 78)" fill="#E7410A"/>
</g>
<defs>
<clipPath id="clip0_293_3458">
<rect width="1440" height="784" fill="white"/>
</clipPath>
</defs>
</svg>
