<svg width="73" height="73" viewBox="0 0 73 73" fill="none" xmlns="http://www.w3.org/2000/svg">
<path d="M0 36.5V73H73V0H0V36.5ZM58.8263 33.58C60.5748 33.9857 62.1639 34.9002 63.3932 36.208C64.07 36.9126 64.6583 37.697 65.1452 38.544C65.1452 38.6374 61.9916 40.769 60.0702 41.9604C60.0002 42.0071 59.7198 41.7034 59.4103 41.2421C59.0596 40.6369 58.5612 40.1304 57.9617 39.7699C57.3623 39.4094 56.6813 39.2066 55.9822 39.1806C53.7689 39.0287 52.3439 40.1909 52.3556 42.1006C52.3373 42.576 52.4462 43.0478 52.671 43.4671C53.1557 44.4774 54.0609 45.079 56.8991 46.3054C62.1259 48.5538 64.3626 50.0371 65.7526 52.1454C67.306 54.4814 67.6506 58.254 66.5994 61.0455C65.4314 64.0823 62.5698 66.1438 58.5226 66.8271C56.6742 67.0388 54.8066 67.0192 52.963 66.7687C50.1493 66.3123 47.5539 64.9726 45.552 62.9435C44.8804 62.2018 43.5722 60.2688 43.654 60.1286C43.8672 59.9704 44.0917 59.8279 44.3256 59.7023L47.012 58.1606L49.1086 56.9458L49.5466 57.5941C50.2857 58.6515 51.2265 59.5525 52.3147 60.2454C54.6507 61.4718 57.8394 61.3025 59.4162 59.8834C59.9456 59.3633 60.2758 58.6741 60.3495 57.9357C60.4231 57.1973 60.2354 56.4564 59.8191 55.8421C59.2351 55.0303 58.0671 54.347 54.8026 52.9221C51.0358 51.2986 49.4122 50.2941 47.9289 48.6939C47.0029 47.638 46.3191 46.3922 45.9258 45.0439C45.6323 43.5036 45.5889 41.926 45.7973 40.3719C46.574 36.7336 49.3013 34.1932 53.2842 33.4398C55.1287 33.2116 56.9971 33.2628 58.8263 33.5917V33.58ZM41.6918 36.6402V39.6302H32.2134V66.6286H25.4916V39.6244H15.9899V36.7044C15.9644 35.6992 15.9917 34.6933 16.0717 33.691C16.1067 33.6442 21.9117 33.6209 28.9197 33.6326H41.6567L41.6918 36.6402Z" fill="black"/>
</svg>
